<?xml version="1.0" encoding="utf-8" standalone="no"?>
<!DOCTYPE svg PUBLIC "-//W3C//DTD SVG 1.1//EN"
  "http://www.w3.org/Graphics/SVG/1.1/DTD/svg11.dtd">
<svg xmlns:xlink="http://www.w3.org/1999/xlink" width="460.8pt" height="345.6pt" viewBox="0 0 460.8 345.6" xmlns="http://www.w3.org/2000/svg" version="1.1">
 <metadata>
  <rdf:RDF xmlns:dc="http://purl.org/dc/elements/1.1/" xmlns:cc="http://creativecommons.org/ns#" xmlns:rdf="http://www.w3.org/1999/02/22-rdf-syntax-ns#">
   <cc:Work>
    <dc:type rdf:resource="http://purl.org/dc/dcmitype/StillImage"/>
    <dc:date>2023-03-07T15:33:39.794148</dc:date>
    <dc:format>image/svg+xml</dc:format>
    <dc:creator>
     <cc:Agent>
      <dc:title>Matplotlib v3.7.1, https://matplotlib.org/</dc:title>
     </cc:Agent>
    </dc:creator>
   </cc:Work>
  </rdf:RDF>
 </metadata>
 <defs>
  <style type="text/css">*{stroke-linejoin: round; stroke-linecap: butt}</style>
 </defs>
 <g id="figure_1">
  <g id="patch_1">
   <path d="M 0 345.6 
L 460.8 345.6 
L 460.8 0 
L 0 0 
z
" style="fill: #ffffff"/>
  </g>
  <g id="axes_1">
   <g id="patch_2">
    <path d="M 38.27 303.64 
L 409.93 303.64 
L 409.93 10.8 
L 38.27 10.8 
z
" style="fill: #ffffff"/>
   </g>
   <g id="matplotlib.axis_1">
    <g id="xtick_1">
     <g id="line2d_1">
      <defs>
       <path id="m4409b544c6" d="M 0 0 
L 0 3.5 
" style="stroke: #000000; stroke-width: 0.8"/>
      </defs>
      <g>
       <use xlink:href="#m4409b544c6" x="55.163636" y="303.64" style="stroke: #000000; stroke-width: 0.8"/>
      </g>
     </g>
     <g id="text_1">
      <!-- 0 -->
      <g transform="translate(51.982386 318.238437) scale(0.1 -0.1)">
       <defs>
        <path id="DejaVuSans-30" d="M 2034 4250 
Q 1547 4250 1301 3770 
Q 1056 3291 1056 2328 
Q 1056 1369 1301 889 
Q 1547 409 2034 409 
Q 2525 409 2770 889 
Q 3016 1369 3016 2328 
Q 3016 3291 2770 3770 
Q 2525 4250 2034 4250 
z
M 2034 4750 
Q 2819 4750 3233 4129 
Q 3647 3509 3647 2328 
Q 3647 1150 3233 529 
Q 2819 -91 2034 -91 
Q 1250 -91 836 529 
Q 422 1150 422 2328 
Q 422 3509 836 4129 
Q 1250 4750 2034 4750 
z
" transform="scale(0.015625)"/>
       </defs>
       <use xlink:href="#DejaVuSans-30"/>
      </g>
     </g>
    </g>
    <g id="xtick_2">
     <g id="line2d_2">
      <g>
       <use xlink:href="#m4409b544c6" x="122.805824" y="303.64" style="stroke: #000000; stroke-width: 0.8"/>
      </g>
     </g>
     <g id="text_2">
      <!-- 200 -->
      <g transform="translate(113.262074 318.238437) scale(0.1 -0.1)">
       <defs>
        <path id="DejaVuSans-32" d="M 1228 531 
L 3431 531 
L 3431 0 
L 469 0 
L 469 531 
Q 828 903 1448 1529 
Q 2069 2156 2228 2338 
Q 2531 2678 2651 2914 
Q 2772 3150 2772 3378 
Q 2772 3750 2511 3984 
Q 2250 4219 1831 4219 
Q 1534 4219 1204 4116 
Q 875 4013 500 3803 
L 500 4441 
Q 881 4594 1212 4672 
Q 1544 4750 1819 4750 
Q 2544 4750 2975 4387 
Q 3406 4025 3406 3419 
Q 3406 3131 3298 2873 
Q 3191 2616 2906 2266 
Q 2828 2175 2409 1742 
Q 1991 1309 1228 531 
z
" transform="scale(0.015625)"/>
       </defs>
       <use xlink:href="#DejaVuSans-32"/>
       <use xlink:href="#DejaVuSans-30" x="63.623047"/>
       <use xlink:href="#DejaVuSans-30" x="127.246094"/>
      </g>
     </g>
    </g>
    <g id="xtick_3">
     <g id="line2d_3">
      <g>
       <use xlink:href="#m4409b544c6" x="190.448012" y="303.64" style="stroke: #000000; stroke-width: 0.8"/>
      </g>
     </g>
     <g id="text_3">
      <!-- 400 -->
      <g transform="translate(180.904262 318.238437) scale(0.1 -0.1)">
       <defs>
        <path id="DejaVuSans-34" d="M 2419 4116 
L 825 1625 
L 2419 1625 
L 2419 4116 
z
M 2253 4666 
L 3047 4666 
L 3047 1625 
L 3713 1625 
L 3713 1100 
L 3047 1100 
L 3047 0 
L 2419 0 
L 2419 1100 
L 313 1100 
L 313 1709 
L 2253 4666 
z
" transform="scale(0.015625)"/>
       </defs>
       <use xlink:href="#DejaVuSans-34"/>
       <use xlink:href="#DejaVuSans-30" x="63.623047"/>
       <use xlink:href="#DejaVuSans-30" x="127.246094"/>
      </g>
     </g>
    </g>
    <g id="xtick_4">
     <g id="line2d_4">
      <g>
       <use xlink:href="#m4409b544c6" x="258.090199" y="303.64" style="stroke: #000000; stroke-width: 0.8"/>
      </g>
     </g>
     <g id="text_4">
      <!-- 600 -->
      <g transform="translate(248.546449 318.238437) scale(0.1 -0.1)">
       <defs>
        <path id="DejaVuSans-36" d="M 2113 2584 
Q 1688 2584 1439 2293 
Q 1191 2003 1191 1497 
Q 1191 994 1439 701 
Q 1688 409 2113 409 
Q 2538 409 2786 701 
Q 3034 994 3034 1497 
Q 3034 2003 2786 2293 
Q 2538 2584 2113 2584 
z
M 3366 4563 
L 3366 3988 
Q 3128 4100 2886 4159 
Q 2644 4219 2406 4219 
Q 1781 4219 1451 3797 
Q 1122 3375 1075 2522 
Q 1259 2794 1537 2939 
Q 1816 3084 2150 3084 
Q 2853 3084 3261 2657 
Q 3669 2231 3669 1497 
Q 3669 778 3244 343 
Q 2819 -91 2113 -91 
Q 1303 -91 875 529 
Q 447 1150 447 2328 
Q 447 3434 972 4092 
Q 1497 4750 2381 4750 
Q 2619 4750 2861 4703 
Q 3103 4656 3366 4563 
z
" transform="scale(0.015625)"/>
       </defs>
       <use xlink:href="#DejaVuSans-36"/>
       <use xlink:href="#DejaVuSans-30" x="63.623047"/>
       <use xlink:href="#DejaVuSans-30" x="127.246094"/>
      </g>
     </g>
    </g>
    <g id="xtick_5">
     <g id="line2d_5">
      <g>
       <use xlink:href="#m4409b544c6" x="325.732387" y="303.64" style="stroke: #000000; stroke-width: 0.8"/>
      </g>
     </g>
     <g id="text_5">
      <!-- 800 -->
      <g transform="translate(316.188637 318.238437) scale(0.1 -0.1)">
       <defs>
        <path id="DejaVuSans-38" d="M 2034 2216 
Q 1584 2216 1326 1975 
Q 1069 1734 1069 1313 
Q 1069 891 1326 650 
Q 1584 409 2034 409 
Q 2484 409 2743 651 
Q 3003 894 3003 1313 
Q 3003 1734 2745 1975 
Q 2488 2216 2034 2216 
z
M 1403 2484 
Q 997 2584 770 2862 
Q 544 3141 544 3541 
Q 544 4100 942 4425 
Q 1341 4750 2034 4750 
Q 2731 4750 3128 4425 
Q 3525 4100 3525 3541 
Q 3525 3141 3298 2862 
Q 3072 2584 2669 2484 
Q 3125 2378 3379 2068 
Q 3634 1759 3634 1313 
Q 3634 634 3220 271 
Q 2806 -91 2034 -91 
Q 1263 -91 848 271 
Q 434 634 434 1313 
Q 434 1759 690 2068 
Q 947 2378 1403 2484 
z
M 1172 3481 
Q 1172 3119 1398 2916 
Q 1625 2713 2034 2713 
Q 2441 2713 2670 2916 
Q 2900 3119 2900 3481 
Q 2900 3844 2670 4047 
Q 2441 4250 2034 4250 
Q 1625 4250 1398 4047 
Q 1172 3844 1172 3481 
z
" transform="scale(0.015625)"/>
       </defs>
       <use xlink:href="#DejaVuSans-38"/>
       <use xlink:href="#DejaVuSans-30" x="63.623047"/>
       <use xlink:href="#DejaVuSans-30" x="127.246094"/>
      </g>
     </g>
    </g>
    <g id="xtick_6">
     <g id="line2d_6">
      <g>
       <use xlink:href="#m4409b544c6" x="393.374575" y="303.64" style="stroke: #000000; stroke-width: 0.8"/>
      </g>
     </g>
     <g id="text_6">
      <!-- 1000 -->
      <g transform="translate(380.649575 318.238437) scale(0.1 -0.1)">
       <defs>
        <path id="DejaVuSans-31" d="M 794 531 
L 1825 531 
L 1825 4091 
L 703 3866 
L 703 4441 
L 1819 4666 
L 2450 4666 
L 2450 531 
L 3481 531 
L 3481 0 
L 794 0 
L 794 531 
z
" transform="scale(0.015625)"/>
       </defs>
       <use xlink:href="#DejaVuSans-31"/>
       <use xlink:href="#DejaVuSans-30" x="63.623047"/>
       <use xlink:href="#DejaVuSans-30" x="127.246094"/>
       <use xlink:href="#DejaVuSans-30" x="190.869141"/>
      </g>
     </g>
    </g>
    <g id="text_7">
     <!-- Model steps -->
     <g transform="translate(194.077344 331.916562) scale(0.1 -0.1)">
      <defs>
       <path id="DejaVuSans-4d" d="M 628 4666 
L 1569 4666 
L 2759 1491 
L 3956 4666 
L 4897 4666 
L 4897 0 
L 4281 0 
L 4281 4097 
L 3078 897 
L 2444 897 
L 1241 4097 
L 1241 0 
L 628 0 
L 628 4666 
z
" transform="scale(0.015625)"/>
       <path id="DejaVuSans-6f" d="M 1959 3097 
Q 1497 3097 1228 2736 
Q 959 2375 959 1747 
Q 959 1119 1226 758 
Q 1494 397 1959 397 
Q 2419 397 2687 759 
Q 2956 1122 2956 1747 
Q 2956 2369 2687 2733 
Q 2419 3097 1959 3097 
z
M 1959 3584 
Q 2709 3584 3137 3096 
Q 3566 2609 3566 1747 
Q 3566 888 3137 398 
Q 2709 -91 1959 -91 
Q 1206 -91 779 398 
Q 353 888 353 1747 
Q 353 2609 779 3096 
Q 1206 3584 1959 3584 
z
" transform="scale(0.015625)"/>
       <path id="DejaVuSans-64" d="M 2906 2969 
L 2906 4863 
L 3481 4863 
L 3481 0 
L 2906 0 
L 2906 525 
Q 2725 213 2448 61 
Q 2172 -91 1784 -91 
Q 1150 -91 751 415 
Q 353 922 353 1747 
Q 353 2572 751 3078 
Q 1150 3584 1784 3584 
Q 2172 3584 2448 3432 
Q 2725 3281 2906 2969 
z
M 947 1747 
Q 947 1113 1208 752 
Q 1469 391 1925 391 
Q 2381 391 2643 752 
Q 2906 1113 2906 1747 
Q 2906 2381 2643 2742 
Q 2381 3103 1925 3103 
Q 1469 3103 1208 2742 
Q 947 2381 947 1747 
z
" transform="scale(0.015625)"/>
       <path id="DejaVuSans-65" d="M 3597 1894 
L 3597 1613 
L 953 1613 
Q 991 1019 1311 708 
Q 1631 397 2203 397 
Q 2534 397 2845 478 
Q 3156 559 3463 722 
L 3463 178 
Q 3153 47 2828 -22 
Q 2503 -91 2169 -91 
Q 1331 -91 842 396 
Q 353 884 353 1716 
Q 353 2575 817 3079 
Q 1281 3584 2069 3584 
Q 2775 3584 3186 3129 
Q 3597 2675 3597 1894 
z
M 3022 2063 
Q 3016 2534 2758 2815 
Q 2500 3097 2075 3097 
Q 1594 3097 1305 2825 
Q 1016 2553 972 2059 
L 3022 2063 
z
" transform="scale(0.015625)"/>
       <path id="DejaVuSans-6c" d="M 603 4863 
L 1178 4863 
L 1178 0 
L 603 0 
L 603 4863 
z
" transform="scale(0.015625)"/>
       <path id="DejaVuSans-20" transform="scale(0.015625)"/>
       <path id="DejaVuSans-73" d="M 2834 3397 
L 2834 2853 
Q 2591 2978 2328 3040 
Q 2066 3103 1784 3103 
Q 1356 3103 1142 2972 
Q 928 2841 928 2578 
Q 928 2378 1081 2264 
Q 1234 2150 1697 2047 
L 1894 2003 
Q 2506 1872 2764 1633 
Q 3022 1394 3022 966 
Q 3022 478 2636 193 
Q 2250 -91 1575 -91 
Q 1294 -91 989 -36 
Q 684 19 347 128 
L 347 722 
Q 666 556 975 473 
Q 1284 391 1588 391 
Q 1994 391 2212 530 
Q 2431 669 2431 922 
Q 2431 1156 2273 1281 
Q 2116 1406 1581 1522 
L 1381 1569 
Q 847 1681 609 1914 
Q 372 2147 372 2553 
Q 372 3047 722 3315 
Q 1072 3584 1716 3584 
Q 2034 3584 2315 3537 
Q 2597 3491 2834 3397 
z
" transform="scale(0.015625)"/>
       <path id="DejaVuSans-74" d="M 1172 4494 
L 1172 3500 
L 2356 3500 
L 2356 3053 
L 1172 3053 
L 1172 1153 
Q 1172 725 1289 603 
Q 1406 481 1766 481 
L 2356 481 
L 2356 0 
L 1766 0 
Q 1100 0 847 248 
Q 594 497 594 1153 
L 594 3053 
L 172 3053 
L 172 3500 
L 594 3500 
L 594 4494 
L 1172 4494 
z
" transform="scale(0.015625)"/>
       <path id="DejaVuSans-70" d="M 1159 525 
L 1159 -1331 
L 581 -1331 
L 581 3500 
L 1159 3500 
L 1159 2969 
Q 1341 3281 1617 3432 
Q 1894 3584 2278 3584 
Q 2916 3584 3314 3078 
Q 3713 2572 3713 1747 
Q 3713 922 3314 415 
Q 2916 -91 2278 -91 
Q 1894 -91 1617 61 
Q 1341 213 1159 525 
z
M 3116 1747 
Q 3116 2381 2855 2742 
Q 2594 3103 2138 3103 
Q 1681 3103 1420 2742 
Q 1159 2381 1159 1747 
Q 1159 1113 1420 752 
Q 1681 391 2138 391 
Q 2594 391 2855 752 
Q 3116 1113 3116 1747 
z
" transform="scale(0.015625)"/>
      </defs>
      <use xlink:href="#DejaVuSans-4d"/>
      <use xlink:href="#DejaVuSans-6f" x="86.279297"/>
      <use xlink:href="#DejaVuSans-64" x="147.460938"/>
      <use xlink:href="#DejaVuSans-65" x="210.9375"/>
      <use xlink:href="#DejaVuSans-6c" x="272.460938"/>
      <use xlink:href="#DejaVuSans-20" x="300.244141"/>
      <use xlink:href="#DejaVuSans-73" x="332.03125"/>
      <use xlink:href="#DejaVuSans-74" x="384.130859"/>
      <use xlink:href="#DejaVuSans-65" x="423.339844"/>
      <use xlink:href="#DejaVuSans-70" x="484.863281"/>
      <use xlink:href="#DejaVuSans-73" x="548.339844"/>
     </g>
    </g>
   </g>
   <g id="matplotlib.axis_2">
    <g id="ytick_1">
     <g id="line2d_7">
      <defs>
       <path id="m512010868b" d="M 0 0 
L -3.5 0 
" style="stroke: #000000; stroke-width: 0.8"/>
      </defs>
      <g>
       <use xlink:href="#m512010868b" x="38.27" y="294.085666" style="stroke: #000000; stroke-width: 0.8"/>
      </g>
     </g>
     <g id="text_8">
      <!-- 0 -->
      <g style="fill: #d62728" transform="translate(24.9075 297.884885) scale(0.1 -0.1)">
       <use xlink:href="#DejaVuSans-30"/>
      </g>
     </g>
    </g>
    <g id="ytick_2">
     <g id="line2d_8">
      <g>
       <use xlink:href="#m512010868b" x="38.27" y="239.710687" style="stroke: #000000; stroke-width: 0.8"/>
      </g>
     </g>
     <g id="text_9">
      <!-- 1 -->
      <g style="fill: #d62728" transform="translate(24.9075 243.509906) scale(0.1 -0.1)">
       <use xlink:href="#DejaVuSans-31"/>
      </g>
     </g>
    </g>
    <g id="ytick_3">
     <g id="line2d_9">
      <g>
       <use xlink:href="#m512010868b" x="38.27" y="185.335708" style="stroke: #000000; stroke-width: 0.8"/>
      </g>
     </g>
     <g id="text_10">
      <!-- 2 -->
      <g style="fill: #d62728" transform="translate(24.9075 189.134927) scale(0.1 -0.1)">
       <use xlink:href="#DejaVuSans-32"/>
      </g>
     </g>
    </g>
    <g id="ytick_4">
     <g id="line2d_10">
      <g>
       <use xlink:href="#m512010868b" x="38.27" y="130.960729" style="stroke: #000000; stroke-width: 0.8"/>
      </g>
     </g>
     <g id="text_11">
      <!-- 3 -->
      <g style="fill: #d62728" transform="translate(24.9075 134.759947) scale(0.1 -0.1)">
       <defs>
        <path id="DejaVuSans-33" d="M 2597 2516 
Q 3050 2419 3304 2112 
Q 3559 1806 3559 1356 
Q 3559 666 3084 287 
Q 2609 -91 1734 -91 
Q 1441 -91 1130 -33 
Q 819 25 488 141 
L 488 750 
Q 750 597 1062 519 
Q 1375 441 1716 441 
Q 2309 441 2620 675 
Q 2931 909 2931 1356 
Q 2931 1769 2642 2001 
Q 2353 2234 1838 2234 
L 1294 2234 
L 1294 2753 
L 1863 2753 
Q 2328 2753 2575 2939 
Q 2822 3125 2822 3475 
Q 2822 3834 2567 4026 
Q 2313 4219 1838 4219 
Q 1578 4219 1281 4162 
Q 984 4106 628 3988 
L 628 4550 
Q 988 4650 1302 4700 
Q 1616 4750 1894 4750 
Q 2613 4750 3031 4423 
Q 3450 4097 3450 3541 
Q 3450 3153 3228 2886 
Q 3006 2619 2597 2516 
z
" transform="scale(0.015625)"/>
       </defs>
       <use xlink:href="#DejaVuSans-33"/>
      </g>
     </g>
    </g>
    <g id="ytick_5">
     <g id="line2d_11">
      <g>
       <use xlink:href="#m512010868b" x="38.27" y="76.585749" style="stroke: #000000; stroke-width: 0.8"/>
      </g>
     </g>
     <g id="text_12">
      <!-- 4 -->
      <g style="fill: #d62728" transform="translate(24.9075 80.384968) scale(0.1 -0.1)">
       <use xlink:href="#DejaVuSans-34"/>
      </g>
     </g>
    </g>
    <g id="ytick_6">
     <g id="line2d_12">
      <g>
       <use xlink:href="#m512010868b" x="38.27" y="22.21077" style="stroke: #000000; stroke-width: 0.8"/>
      </g>
     </g>
     <g id="text_13">
      <!-- 5 -->
      <g style="fill: #d62728" transform="translate(24.9075 26.009989) scale(0.1 -0.1)">
       <defs>
        <path id="DejaVuSans-35" d="M 691 4666 
L 3169 4666 
L 3169 4134 
L 1269 4134 
L 1269 2991 
Q 1406 3038 1543 3061 
Q 1681 3084 1819 3084 
Q 2600 3084 3056 2656 
Q 3513 2228 3513 1497 
Q 3513 744 3044 326 
Q 2575 -91 1722 -91 
Q 1428 -91 1123 -41 
Q 819 9 494 109 
L 494 744 
Q 775 591 1075 516 
Q 1375 441 1709 441 
Q 2250 441 2565 725 
Q 2881 1009 2881 1497 
Q 2881 1984 2565 2268 
Q 2250 2553 1709 2553 
Q 1456 2553 1204 2497 
Q 953 2441 691 2322 
L 691 4666 
z
" transform="scale(0.015625)"/>
       </defs>
       <use xlink:href="#DejaVuSans-35"/>
      </g>
     </g>
    </g>
    <g id="text_14">
     <!-- Model distance -->
     <g style="fill: #d62728" transform="translate(18.827813 195.009062) rotate(-90) scale(0.1 -0.1)">
      <defs>
       <path id="DejaVuSans-69" d="M 603 3500 
L 1178 3500 
L 1178 0 
L 603 0 
L 603 3500 
z
M 603 4863 
L 1178 4863 
L 1178 4134 
L 603 4134 
L 603 4863 
z
" transform="scale(0.015625)"/>
       <path id="DejaVuSans-61" d="M 2194 1759 
Q 1497 1759 1228 1600 
Q 959 1441 959 1056 
Q 959 750 1161 570 
Q 1363 391 1709 391 
Q 2188 391 2477 730 
Q 2766 1069 2766 1631 
L 2766 1759 
L 2194 1759 
z
M 3341 1997 
L 3341 0 
L 2766 0 
L 2766 531 
Q 2569 213 2275 61 
Q 1981 -91 1556 -91 
Q 1019 -91 701 211 
Q 384 513 384 1019 
Q 384 1609 779 1909 
Q 1175 2209 1959 2209 
L 2766 2209 
L 2766 2266 
Q 2766 2663 2505 2880 
Q 2244 3097 1772 3097 
Q 1472 3097 1187 3025 
Q 903 2953 641 2809 
L 641 3341 
Q 956 3463 1253 3523 
Q 1550 3584 1831 3584 
Q 2591 3584 2966 3190 
Q 3341 2797 3341 1997 
z
" transform="scale(0.015625)"/>
       <path id="DejaVuSans-6e" d="M 3513 2113 
L 3513 0 
L 2938 0 
L 2938 2094 
Q 2938 2591 2744 2837 
Q 2550 3084 2163 3084 
Q 1697 3084 1428 2787 
Q 1159 2491 1159 1978 
L 1159 0 
L 581 0 
L 581 3500 
L 1159 3500 
L 1159 2956 
Q 1366 3272 1645 3428 
Q 1925 3584 2291 3584 
Q 2894 3584 3203 3211 
Q 3513 2838 3513 2113 
z
" transform="scale(0.015625)"/>
       <path id="DejaVuSans-63" d="M 3122 3366 
L 3122 2828 
Q 2878 2963 2633 3030 
Q 2388 3097 2138 3097 
Q 1578 3097 1268 2742 
Q 959 2388 959 1747 
Q 959 1106 1268 751 
Q 1578 397 2138 397 
Q 2388 397 2633 464 
Q 2878 531 3122 666 
L 3122 134 
Q 2881 22 2623 -34 
Q 2366 -91 2075 -91 
Q 1284 -91 818 406 
Q 353 903 353 1747 
Q 353 2603 823 3093 
Q 1294 3584 2113 3584 
Q 2378 3584 2631 3529 
Q 2884 3475 3122 3366 
z
" transform="scale(0.015625)"/>
      </defs>
      <use xlink:href="#DejaVuSans-4d"/>
      <use xlink:href="#DejaVuSans-6f" x="86.279297"/>
      <use xlink:href="#DejaVuSans-64" x="147.460938"/>
      <use xlink:href="#DejaVuSans-65" x="210.9375"/>
      <use xlink:href="#DejaVuSans-6c" x="272.460938"/>
      <use xlink:href="#DejaVuSans-20" x="300.244141"/>
      <use xlink:href="#DejaVuSans-64" x="332.03125"/>
      <use xlink:href="#DejaVuSans-69" x="395.507812"/>
      <use xlink:href="#DejaVuSans-73" x="423.291016"/>
      <use xlink:href="#DejaVuSans-74" x="475.390625"/>
      <use xlink:href="#DejaVuSans-61" x="514.599609"/>
      <use xlink:href="#DejaVuSans-6e" x="575.878906"/>
      <use xlink:href="#DejaVuSans-63" x="639.257812"/>
      <use xlink:href="#DejaVuSans-65" x="694.238281"/>
     </g>
    </g>
   </g>
   <g id="line2d_13">
    <path d="M 55.163636 290.329091 
L 56.51648 273.614465 
L 57.869324 256.445414 
L 58.207535 252.722437 
L 58.545746 247.276862 
L 58.883957 245.167017 
L 60.575011 225.927446 
L 60.913222 219.689167 
L 61.251433 220.024817 
L 61.589644 211.915434 
L 61.927855 208.515029 
L 62.266066 200.183404 
L 62.604277 194.970201 
L 62.942488 196.187642 
L 63.280699 198.518632 
L 63.61891 192.420544 
L 63.957121 189.700787 
L 64.295332 174.547967 
L 64.971754 166.702803 
L 65.648175 144.188765 
L 65.986386 118.013171 
L 66.324597 131.734925 
L 66.662808 128.71271 
L 67.001019 141.983837 
L 67.33923 113.71644 
L 67.677441 121.900038 
L 68.015652 137.1805 
L 68.353863 125.44847 
L 69.030285 97.181072 
L 69.368496 89.745774 
L 69.706707 113.71644 
L 70.044918 113.71644 
L 70.383129 68.913674 
L 71.05955 89.745774 
L 71.397761 141.983837 
L 71.735972 137.1805 
L 72.074183 137.1805 
L 72.412394 146.280569 
L 72.750605 137.1805 
L 73.088816 139.652847 
L 73.427027 153.715867 
L 73.765238 137.1805 
L 74.103449 141.983837 
L 74.44166 141.983837 
L 74.779871 113.71644 
L 75.118082 118.013171 
L 75.456293 134.548539 
L 75.794504 131.734925 
L 76.132715 80.645704 
M 83.235144 52.378307 
L 83.573355 68.913674 
L 83.911566 68.913674 
M 85.26441 52.378307 
L 85.602621 52.378307 
M 87.631886 97.181072 
L 87.970097 24.110909 
M 90.675785 113.71644 
L 91.013996 125.44847 
L 91.352207 131.734925 
L 91.690418 131.734925 
L 92.028629 137.1805 
L 92.36684 118.013171 
L 92.705051 125.44847 
L 93.043261 103.467527 
L 93.381472 125.44847 
L 93.719683 139.652847 
L 94.057894 118.013171 
L 94.396105 80.645704 
M 96.08716 24.110909 
L 96.425371 113.71644 
L 96.763582 24.110909 
L 97.101793 68.913674 
M 100.145691 97.181072 
L 100.483902 52.378307 
L 100.822113 24.110909 
M 105.895277 68.913674 
L 106.233488 24.110909 
M 108.262754 89.745774 
L 108.600965 108.913102 
M 109.277386 89.745774 
L 109.615597 89.745774 
L 109.953808 52.378307 
M 118.070871 97.181072 
L 118.409082 103.467527 
L 118.747293 118.013171 
L 119.085504 118.013171 
L 119.423715 103.467527 
L 119.761926 137.1805 
L 120.100137 139.652847 
L 120.438347 164.153146 
L 120.776558 164.153146 
L 121.114769 155.380639 
L 121.45298 158.519205 
L 122.129402 103.467527 
L 122.467613 134.548539 
L 122.805824 128.71271 
L 123.144035 146.280569 
L 123.482246 139.652847 
L 123.820457 113.71644 
L 124.158668 131.734925 
L 124.496879 80.645704 
M 126.864355 68.913674 
L 127.202566 125.44847 
M 134.304996 97.181072 
L 134.643207 125.44847 
L 135.319629 89.745774 
L 135.65784 24.110909 
M 139.37816 80.645704 
L 139.716371 121.900038 
L 140.054582 113.71644 
L 140.392793 118.013171 
M 141.069215 113.71644 
L 141.407426 150.167436 
L 141.745637 113.71644 
L 142.083847 97.181072 
L 142.422058 134.548539 
L 142.760269 118.013171 
L 143.09848 113.71644 
L 143.436691 68.913674 
L 144.113113 128.71271 
L 144.451324 80.645704 
L 144.789535 103.467527 
L 145.127746 108.913102 
L 145.465957 52.378307 
M 146.142379 68.913674 
L 146.48059 113.71644 
L 146.818801 139.652847 
L 147.157012 156.980108 
L 147.833433 162.815937 
L 148.171644 173.515475 
L 148.509855 174.547967 
L 148.848066 167.920244 
L 149.186277 173.515475 
L 149.524488 170.251235 
L 149.862699 170.251235 
L 150.20091 160.002322 
L 150.539121 156.980108 
L 150.877332 137.1805 
L 151.215543 144.188765 
L 151.553754 141.983837 
L 151.891965 137.1805 
L 152.230176 125.44847 
L 152.568387 80.645704 
L 152.906598 68.913674 
L 153.244808 113.71644 
L 153.583019 103.467527 
L 153.92123 103.467527 
L 154.259441 113.71644 
L 154.597652 131.734925 
L 154.935863 103.467527 
L 155.274074 97.181072 
M 166.096824 108.913102 
L 166.435035 89.745774 
L 166.773246 24.110909 
M 175.904941 68.913674 
L 176.243152 108.913102 
L 176.581363 113.71644 
L 176.919574 128.71271 
L 177.257785 128.71271 
L 177.595996 118.013171 
L 177.934207 24.110909 
M 194.168332 24.110909 
L 194.506543 52.378307 
M 198.903285 118.013171 
L 199.241496 89.745774 
L 199.579707 89.745774 
L 199.917918 131.734925 
L 200.256129 121.900038 
L 200.59434 121.900038 
L 200.932551 24.110909 
L 201.270762 24.110909 
M 201.947184 24.110909 
L 202.623605 103.467527 
L 202.961816 121.900038 
L 203.300027 131.734925 
L 203.638238 24.110909 
M 206.005715 103.467527 
L 206.343926 97.181072 
L 206.682137 103.467527 
M 212.093512 68.913674 
L 212.431723 52.378307 
L 212.769934 52.378307 
L 213.108145 80.645704 
L 213.446355 144.188765 
L 213.784566 128.71271 
L 214.122777 134.548539 
L 214.460988 125.44847 
L 214.799199 131.734925 
L 215.13741 155.380639 
L 215.475621 155.380639 
L 216.152043 128.71271 
L 216.490254 134.548539 
L 216.828465 103.467527 
M 220.548785 80.645704 
L 220.886996 97.181072 
L 221.225207 97.181072 
L 221.563418 108.913102 
M 226.974793 80.645704 
L 227.313004 89.745774 
M 229.34227 97.181072 
L 229.68048 125.44847 
L 230.018691 125.44847 
L 230.356902 141.983837 
L 230.695113 121.900038 
L 231.033324 52.378307 
L 231.371535 108.913102 
L 231.709746 118.013171 
L 232.386168 24.110909 
L 232.724379 103.467527 
L 233.06259 68.913674 
L 233.400801 97.181072 
L 233.739012 89.745774 
M 240.16502 52.378307 
L 240.503231 89.745774 
L 240.841441 68.913674 
L 241.517863 139.652847 
L 241.856074 103.467527 
L 242.194285 103.467527 
M 249.296715 24.110909 
L 249.973137 80.645704 
L 250.311348 128.71271 
L 250.649559 89.745774 
L 250.98777 118.013171 
L 251.664191 134.548539 
L 252.002402 89.745774 
L 252.340613 97.181072 
M 268.912949 68.913674 
L 269.25116 108.913102 
L 269.589371 125.44847 
L 269.927582 97.181072 
L 270.265793 137.1805 
L 270.604004 108.913102 
L 270.942215 113.71644 
L 271.280426 89.745774 
M 273.309692 144.188765 
L 273.647902 125.44847 
L 273.986113 151.980234 
L 274.324324 155.380639 
L 274.662535 167.920244 
L 275.338957 150.167436 
L 275.677168 153.715867 
L 276.015379 137.1805 
L 276.35359 141.983837 
L 276.691801 141.983837 
L 277.030012 121.900038 
L 277.706434 113.71644 
L 278.044645 52.378307 
L 278.382856 52.378307 
L 278.721067 121.900038 
L 279.059277 128.71271 
M 279.735699 97.181072 
L 280.07391 97.181072 
M 281.088543 24.110909 
L 281.426754 52.378307 
M 284.132442 89.745774 
L 284.470652 89.745774 
L 284.808863 118.013171 
L 285.147074 125.44847 
L 285.485285 113.71644 
L 285.823496 89.745774 
L 286.161707 103.467527 
L 286.499918 89.745774 
L 286.838129 52.378307 
M 290.220238 97.181072 
L 290.558449 80.645704 
M 293.940559 118.013171 
L 294.27877 68.913674 
M 295.293402 52.378307 
L 295.631613 52.378307 
M 297.322668 89.745774 
L 297.660879 24.110909 
L 297.99909 113.71644 
L 298.337301 134.548539 
L 298.675512 139.652847 
L 299.013723 121.900038 
L 299.690145 164.153146 
L 300.366567 181.983265 
L 300.704778 173.515475 
L 301.042988 176.53769 
L 301.381199 161.43339 
L 301.71941 155.380639 
L 302.057621 158.519205 
L 302.395832 151.980234 
L 302.734043 150.167436 
L 303.072254 144.188765 
L 303.410465 158.519205 
L 303.748676 164.153146 
L 304.086887 156.980108 
L 304.425098 153.715867 
L 304.763309 167.920244 
L 305.439731 128.71271 
L 305.777942 52.378307 
L 306.116153 97.181072 
L 306.454363 108.913102 
M 309.160051 52.378307 
L 309.498262 80.645704 
L 309.836473 80.645704 
L 310.174684 68.913674 
L 310.512895 24.110909 
L 311.189317 24.110909 
L 311.865738 153.715867 
L 312.203949 141.983837 
L 312.54216 158.519205 
L 312.880371 141.983837 
L 313.218582 161.43339 
L 313.556793 151.980234 
L 313.895004 156.980108 
L 314.233215 150.167436 
L 314.571426 146.280569 
L 314.909637 131.734925 
L 315.247848 141.983837 
L 315.586059 146.280569 
L 315.92427 128.71271 
L 316.262481 103.467527 
L 316.600692 89.745774 
L 316.938903 89.745774 
L 317.277113 121.900038 
L 317.615324 89.745774 
L 317.953535 108.913102 
L 318.291746 146.280569 
L 318.629957 89.745774 
L 318.968168 146.280569 
L 319.306379 165.447897 
L 319.64459 162.815937 
L 319.982801 166.702803 
L 320.321012 166.702803 
L 320.659223 171.368599 
L 321.335645 155.380639 
L 321.673856 150.167436 
L 322.012067 131.734925 
L 322.350278 131.734925 
L 322.688488 108.913102 
L 323.026699 134.548539 
L 323.36491 141.983837 
L 323.703121 131.734925 
L 324.041332 153.715867 
L 324.379543 139.652847 
L 324.717754 97.181072 
L 325.055965 68.913674 
M 325.732387 52.378307 
L 326.070598 52.378307 
L 326.408809 89.745774 
L 326.74702 89.745774 
M 328.776285 24.110909 
L 329.114496 121.900038 
L 329.790918 150.167436 
L 330.129129 125.44847 
L 330.46734 108.913102 
L 330.805551 118.013171 
L 331.143762 139.652847 
L 331.481973 137.1805 
M 332.158395 131.734925 
L 332.496606 144.188765 
L 332.834817 137.1805 
L 333.173028 113.71644 
L 333.511239 144.188765 
L 333.849449 148.270292 
L 334.18766 153.715867 
L 334.525871 148.270292 
L 335.202293 161.43339 
L 335.540504 148.270292 
L 335.878715 121.900038 
M 337.56977 80.645704 
L 337.907981 89.745774 
M 339.260824 24.110909 
L 339.599035 52.378307 
L 339.937246 52.378307 
M 346.363254 24.110909 
L 346.701465 52.378307 
L 347.039676 68.913674 
M 348.39252 52.378307 
L 348.730731 24.110909 
L 349.068942 52.378307 
L 349.407153 24.110909 
L 349.745364 97.181072 
L 350.083574 97.181072 
L 350.421785 80.645704 
L 350.759996 52.378307 
M 351.436418 24.110909 
L 351.774629 103.467527 
L 352.11284 89.745774 
L 352.451051 125.44847 
L 352.789262 134.548539 
L 353.127473 128.71271 
L 353.465684 118.013171 
M 354.818528 108.913102 
L 355.156739 52.378307 
L 355.494949 108.913102 
L 355.83316 68.913674 
L 356.171371 52.378307 
L 356.509582 108.913102 
L 356.847793 80.645704 
L 357.186004 103.467527 
L 357.524215 134.548539 
L 357.862426 128.71271 
L 358.200637 128.71271 
L 358.538848 161.43339 
L 358.877059 170.251235 
L 359.21527 162.815937 
L 359.553481 151.980234 
L 359.891692 151.980234 
L 360.229903 131.734925 
L 360.568114 131.734925 
L 360.906325 103.467527 
L 361.244535 97.181072 
L 361.582746 103.467527 
M 366.3177 24.110909 
L 366.65591 118.013171 
L 366.994121 118.013171 
L 367.332332 89.745774 
L 367.670543 125.44847 
L 368.008754 125.44847 
L 368.346965 121.900038 
L 368.685176 144.188765 
L 369.023387 134.548539 
L 369.361598 97.181072 
L 369.699809 89.745774 
M 370.376231 24.110909 
L 370.714442 24.110909 
L 371.052653 68.913674 
L 371.729075 113.71644 
L 372.067285 121.900038 
L 372.405496 118.013171 
L 372.743707 125.44847 
L 373.081918 113.71644 
L 373.420129 118.013171 
L 373.75834 113.71644 
L 374.096551 97.181072 
M 384.242879 103.467527 
L 384.58109 118.013171 
L 384.919301 139.652847 
L 385.257512 139.652847 
L 385.595723 128.71271 
L 385.933934 103.467527 
L 386.272145 52.378307 
M 389.654254 24.110909 
L 389.992465 52.378307 
L 389.992465 52.378307 
" clip-path="url(#p08f9fabafd)" style="fill: none; stroke: #d62728; stroke-width: 1.5; stroke-linecap: square"/>
   </g>
   <g id="patch_3">
    <path d="M 38.27 303.64 
L 38.27 10.8 
" style="fill: none; stroke: #000000; stroke-width: 0.8; stroke-linejoin: miter; stroke-linecap: square"/>
   </g>
   <g id="patch_4">
    <path d="M 409.93 303.64 
L 409.93 10.8 
" style="fill: none; stroke: #000000; stroke-width: 0.8; stroke-linejoin: miter; stroke-linecap: square"/>
   </g>
   <g id="patch_5">
    <path d="M 38.27 303.64 
L 409.93 303.64 
" style="fill: none; stroke: #000000; stroke-width: 0.8; stroke-linejoin: miter; stroke-linecap: square"/>
   </g>
   <g id="patch_6">
    <path d="M 38.27 10.8 
L 409.93 10.8 
" style="fill: none; stroke: #000000; stroke-width: 0.8; stroke-linejoin: miter; stroke-linecap: square"/>
   </g>
  </g>
  <g id="axes_2">
   <g id="matplotlib.axis_3">
    <g id="ytick_7">
     <g id="line2d_14">
      <defs>
       <path id="m05364d9161" d="M 0 0 
L 3.5 0 
" style="stroke: #000000; stroke-width: 0.8"/>
      </defs>
      <g>
       <use xlink:href="#m05364d9161" x="409.93" y="277.827132" style="stroke: #000000; stroke-width: 0.8"/>
      </g>
     </g>
     <g id="text_15">
      <!-- 100 -->
      <g style="fill: #1f77b4" transform="translate(416.93 281.626351) scale(0.1 -0.1)">
       <use xlink:href="#DejaVuSans-31"/>
       <use xlink:href="#DejaVuSans-30" x="63.623047"/>
       <use xlink:href="#DejaVuSans-30" x="127.246094"/>
      </g>
     </g>
    </g>
    <g id="ytick_8">
     <g id="line2d_15">
      <g>
       <use xlink:href="#m05364d9161" x="409.93" y="241.056665" style="stroke: #000000; stroke-width: 0.8"/>
      </g>
     </g>
     <g id="text_16">
      <!-- 200 -->
      <g style="fill: #1f77b4" transform="translate(416.93 244.855884) scale(0.1 -0.1)">
       <use xlink:href="#DejaVuSans-32"/>
       <use xlink:href="#DejaVuSans-30" x="63.623047"/>
       <use xlink:href="#DejaVuSans-30" x="127.246094"/>
      </g>
     </g>
    </g>
    <g id="ytick_9">
     <g id="line2d_16">
      <g>
       <use xlink:href="#m05364d9161" x="409.93" y="204.286198" style="stroke: #000000; stroke-width: 0.8"/>
      </g>
     </g>
     <g id="text_17">
      <!-- 300 -->
      <g style="fill: #1f77b4" transform="translate(416.93 208.085417) scale(0.1 -0.1)">
       <use xlink:href="#DejaVuSans-33"/>
       <use xlink:href="#DejaVuSans-30" x="63.623047"/>
       <use xlink:href="#DejaVuSans-30" x="127.246094"/>
      </g>
     </g>
    </g>
    <g id="ytick_10">
     <g id="line2d_17">
      <g>
       <use xlink:href="#m05364d9161" x="409.93" y="167.515731" style="stroke: #000000; stroke-width: 0.8"/>
      </g>
     </g>
     <g id="text_18">
      <!-- 400 -->
      <g style="fill: #1f77b4" transform="translate(416.93 171.31495) scale(0.1 -0.1)">
       <use xlink:href="#DejaVuSans-34"/>
       <use xlink:href="#DejaVuSans-30" x="63.623047"/>
       <use xlink:href="#DejaVuSans-30" x="127.246094"/>
      </g>
     </g>
    </g>
    <g id="ytick_11">
     <g id="line2d_18">
      <g>
       <use xlink:href="#m05364d9161" x="409.93" y="130.745264" style="stroke: #000000; stroke-width: 0.8"/>
      </g>
     </g>
     <g id="text_19">
      <!-- 500 -->
      <g style="fill: #1f77b4" transform="translate(416.93 134.544482) scale(0.1 -0.1)">
       <use xlink:href="#DejaVuSans-35"/>
       <use xlink:href="#DejaVuSans-30" x="63.623047"/>
       <use xlink:href="#DejaVuSans-30" x="127.246094"/>
      </g>
     </g>
    </g>
    <g id="ytick_12">
     <g id="line2d_19">
      <g>
       <use xlink:href="#m05364d9161" x="409.93" y="93.974797" style="stroke: #000000; stroke-width: 0.8"/>
      </g>
     </g>
     <g id="text_20">
      <!-- 600 -->
      <g style="fill: #1f77b4" transform="translate(416.93 97.774015) scale(0.1 -0.1)">
       <use xlink:href="#DejaVuSans-36"/>
       <use xlink:href="#DejaVuSans-30" x="63.623047"/>
       <use xlink:href="#DejaVuSans-30" x="127.246094"/>
      </g>
     </g>
    </g>
    <g id="ytick_13">
     <g id="line2d_20">
      <g>
       <use xlink:href="#m05364d9161" x="409.93" y="57.204329" style="stroke: #000000; stroke-width: 0.8"/>
      </g>
     </g>
     <g id="text_21">
      <!-- 700 -->
      <g style="fill: #1f77b4" transform="translate(416.93 61.003548) scale(0.1 -0.1)">
       <defs>
        <path id="DejaVuSans-37" d="M 525 4666 
L 3525 4666 
L 3525 4397 
L 1831 0 
L 1172 0 
L 2766 4134 
L 525 4134 
L 525 4666 
z
" transform="scale(0.015625)"/>
       </defs>
       <use xlink:href="#DejaVuSans-37"/>
       <use xlink:href="#DejaVuSans-30" x="63.623047"/>
       <use xlink:href="#DejaVuSans-30" x="127.246094"/>
      </g>
     </g>
    </g>
    <g id="ytick_14">
     <g id="line2d_21">
      <g>
       <use xlink:href="#m05364d9161" x="409.93" y="20.433862" style="stroke: #000000; stroke-width: 0.8"/>
      </g>
     </g>
     <g id="text_22">
      <!-- 800 -->
      <g style="fill: #1f77b4" transform="translate(416.93 24.233081) scale(0.1 -0.1)">
       <use xlink:href="#DejaVuSans-38"/>
       <use xlink:href="#DejaVuSans-30" x="63.623047"/>
       <use xlink:href="#DejaVuSans-30" x="127.246094"/>
      </g>
     </g>
    </g>
    <g id="text_23">
     <!-- Simple distance -->
     <g style="fill: #1f77b4" transform="translate(447.615938 197.069219) rotate(-90) scale(0.1 -0.1)">
      <defs>
       <path id="DejaVuSans-53" d="M 3425 4513 
L 3425 3897 
Q 3066 4069 2747 4153 
Q 2428 4238 2131 4238 
Q 1616 4238 1336 4038 
Q 1056 3838 1056 3469 
Q 1056 3159 1242 3001 
Q 1428 2844 1947 2747 
L 2328 2669 
Q 3034 2534 3370 2195 
Q 3706 1856 3706 1288 
Q 3706 609 3251 259 
Q 2797 -91 1919 -91 
Q 1588 -91 1214 -16 
Q 841 59 441 206 
L 441 856 
Q 825 641 1194 531 
Q 1563 422 1919 422 
Q 2459 422 2753 634 
Q 3047 847 3047 1241 
Q 3047 1584 2836 1778 
Q 2625 1972 2144 2069 
L 1759 2144 
Q 1053 2284 737 2584 
Q 422 2884 422 3419 
Q 422 4038 858 4394 
Q 1294 4750 2059 4750 
Q 2388 4750 2728 4690 
Q 3069 4631 3425 4513 
z
" transform="scale(0.015625)"/>
       <path id="DejaVuSans-6d" d="M 3328 2828 
Q 3544 3216 3844 3400 
Q 4144 3584 4550 3584 
Q 5097 3584 5394 3201 
Q 5691 2819 5691 2113 
L 5691 0 
L 5113 0 
L 5113 2094 
Q 5113 2597 4934 2840 
Q 4756 3084 4391 3084 
Q 3944 3084 3684 2787 
Q 3425 2491 3425 1978 
L 3425 0 
L 2847 0 
L 2847 2094 
Q 2847 2600 2669 2842 
Q 2491 3084 2119 3084 
Q 1678 3084 1418 2786 
Q 1159 2488 1159 1978 
L 1159 0 
L 581 0 
L 581 3500 
L 1159 3500 
L 1159 2956 
Q 1356 3278 1631 3431 
Q 1906 3584 2284 3584 
Q 2666 3584 2933 3390 
Q 3200 3197 3328 2828 
z
" transform="scale(0.015625)"/>
      </defs>
      <use xlink:href="#DejaVuSans-53"/>
      <use xlink:href="#DejaVuSans-69" x="63.476562"/>
      <use xlink:href="#DejaVuSans-6d" x="91.259766"/>
      <use xlink:href="#DejaVuSans-70" x="188.671875"/>
      <use xlink:href="#DejaVuSans-6c" x="252.148438"/>
      <use xlink:href="#DejaVuSans-65" x="279.931641"/>
      <use xlink:href="#DejaVuSans-20" x="341.455078"/>
      <use xlink:href="#DejaVuSans-64" x="373.242188"/>
      <use xlink:href="#DejaVuSans-69" x="436.71875"/>
      <use xlink:href="#DejaVuSans-73" x="464.501953"/>
      <use xlink:href="#DejaVuSans-74" x="516.601562"/>
      <use xlink:href="#DejaVuSans-61" x="555.810547"/>
      <use xlink:href="#DejaVuSans-6e" x="617.089844"/>
      <use xlink:href="#DejaVuSans-63" x="680.46875"/>
      <use xlink:href="#DejaVuSans-65" x="735.449219"/>
     </g>
    </g>
   </g>
   <g id="line2d_22">
    <path d="M 55.163636 290.329091 
L 56.51648 205.757017 
L 57.192902 174.869824 
L 57.869324 148.395088 
L 58.883957 121.920352 
L 60.2368 94.710206 
L 60.575011 90.665455 
L 60.913222 83.311361 
L 61.251433 83.679066 
L 61.589644 75.589563 
L 61.927855 72.647926 
L 62.266066 66.396946 
L 62.604277 63.087604 
L 62.942488 63.823014 
L 63.280699 65.293832 
L 63.61891 61.616786 
L 63.957121 60.145967 
L 64.295332 53.527283 
L 64.971754 50.95335 
L 65.986386 42.496143 
L 66.324597 43.966961 
L 66.662808 43.599257 
L 67.001019 45.43778 
L 67.33923 42.128438 
L 67.677441 42.863847 
L 68.015652 44.702371 
L 68.692074 41.760733 
L 69.030285 41.025324 
L 69.368496 40.657619 
L 69.706707 42.128438 
L 70.044918 42.128438 
L 70.383129 39.92221 
L 71.05955 40.657619 
L 71.397761 45.43778 
L 71.735972 44.702371 
L 72.074183 44.702371 
L 72.412394 46.173189 
L 72.750605 44.702371 
L 73.088816 45.070075 
L 73.427027 47.644008 
L 73.765238 44.702371 
L 74.103449 45.43778 
L 74.44166 45.43778 
L 74.779871 42.128438 
L 75.118082 42.496143 
L 75.456293 44.334666 
L 75.794504 43.966961 
L 76.132715 40.289915 
L 76.470925 38.451391 
L 76.809136 34.774345 
L 77.147347 33.303526 
L 77.485558 33.303526 
L 78.16198 28.15566 
L 78.500191 28.15566 
L 78.838402 29.626479 
L 79.176613 30.361888 
L 79.514824 31.465003 
L 79.853035 29.258774 
L 80.191246 32.935821 
L 80.529457 32.568117 
L 80.867668 34.038935 
L 81.205879 36.245163 
L 81.54409 34.774345 
L 81.8823 37.348277 
L 82.558722 40.657619 
L 82.896933 38.819096 
L 83.235144 39.554505 
L 83.573355 39.92221 
L 83.911566 39.92221 
L 84.249777 38.083687 
L 84.587988 38.083687 
L 84.926199 35.142049 
L 85.26441 39.554505 
L 85.602621 39.554505 
L 85.940832 36.245163 
L 86.279043 36.980573 
L 86.955465 38.819096 
L 87.293675 37.715982 
L 87.631886 41.025324 
L 87.970097 39.186801 
L 88.308308 36.612868 
L 88.646519 35.877459 
L 89.322941 41.025324 
L 89.999363 35.877459 
L 90.337574 37.715982 
L 90.675785 42.128438 
L 91.352207 43.966961 
L 91.690418 43.966961 
L 92.028629 44.702371 
L 92.36684 42.496143 
L 92.705051 43.231552 
L 93.043261 41.393029 
L 93.719683 45.070075 
L 94.396105 40.289915 
L 94.734316 38.819096 
L 95.072527 38.451391 
L 95.410738 39.554505 
L 95.748949 37.715982 
L 96.08716 39.186801 
L 96.425371 42.128438 
L 96.763582 39.186801 
L 97.101793 39.92221 
L 97.778215 37.348277 
L 98.116426 38.083687 
L 98.454636 41.025324 
L 99.131058 36.612868 
L 99.469269 39.92221 
L 99.80748 38.083687 
L 100.145691 41.025324 
L 100.483902 39.554505 
L 100.822113 39.186801 
L 101.160324 37.348277 
L 101.498535 38.819096 
L 101.836746 37.348277 
L 102.174957 37.348277 
L 102.513168 36.245163 
L 102.851379 35.877459 
L 103.18959 35.142049 
L 103.527801 35.509754 
L 103.866011 35.509754 
L 104.204222 35.142049 
L 104.542433 37.348277 
L 104.880644 34.038935 
L 105.218855 35.142049 
L 105.895277 39.92221 
L 106.90991 37.715982 
L 107.248121 37.348277 
L 107.586332 36.245163 
L 107.924543 37.348277 
L 108.262754 40.657619 
L 108.600965 41.760733 
L 108.939176 37.715982 
L 109.277386 40.657619 
L 109.615597 40.657619 
L 110.292019 38.451391 
L 110.63023 38.451391 
L 110.968441 35.509754 
L 111.306652 34.038935 
L 111.644863 36.245163 
L 112.659496 27.787956 
L 112.997707 34.774345 
L 113.335918 38.819096 
L 113.674129 35.142049 
L 114.01234 35.142049 
L 114.350551 34.774345 
L 114.688761 35.509754 
L 115.026972 37.348277 
L 115.365183 36.612868 
L 115.703394 36.612868 
L 116.041605 36.980573 
L 116.379816 34.40664 
L 116.718027 34.774345 
L 117.056238 36.612868 
L 117.394449 35.877459 
L 117.73266 36.245163 
L 118.070871 41.025324 
L 118.409082 41.393029 
L 118.747293 42.496143 
L 119.085504 42.496143 
L 119.423715 41.393029 
L 119.761926 44.702371 
L 120.100137 45.070075 
L 120.438347 50.217941 
L 120.776558 50.217941 
L 121.114769 48.011713 
L 121.45298 48.747122 
L 121.791191 44.334666 
L 122.129402 41.393029 
L 122.467613 44.334666 
L 122.805824 43.599257 
L 123.144035 46.173189 
L 123.482246 45.070075 
L 123.820457 42.128438 
L 124.158668 43.966961 
L 124.496879 40.289915 
L 124.83509 38.083687 
L 125.173301 38.451391 
L 125.849722 35.877459 
L 126.187933 35.877459 
L 126.526144 37.348277 
L 127.202566 43.231552 
L 127.540777 36.980573 
L 127.878988 36.980573 
L 128.217199 28.89107 
L 128.893621 33.303526 
L 129.231832 34.038935 
L 129.570043 32.568117 
L 129.908254 33.671231 
L 130.584676 32.200412 
L 130.922887 34.774345 
L 131.599308 32.200412 
L 132.27573 28.523365 
L 132.613941 28.15566 
L 132.952152 27.420251 
L 133.290363 29.994184 
L 133.628574 35.142049 
L 133.966785 36.245163 
L 134.304996 41.025324 
L 134.643207 43.231552 
L 135.65784 39.186801 
L 135.996051 38.083687 
L 136.334262 34.038935 
L 136.672472 37.348277 
L 137.348894 36.612868 
L 137.687105 38.083687 
L 138.025316 35.142049 
L 138.363527 33.671231 
L 138.701738 36.612868 
L 139.039949 37.348277 
L 139.716371 42.863847 
L 140.054582 42.128438 
L 140.392793 42.496143 
L 140.731004 38.451391 
L 141.407426 46.908599 
L 141.745637 42.128438 
L 142.083847 41.025324 
L 142.422058 44.334666 
L 142.760269 42.496143 
L 143.09848 42.128438 
L 143.436691 39.92221 
L 143.774902 41.393029 
L 144.113113 43.599257 
L 144.451324 40.289915 
L 144.789535 41.393029 
L 145.127746 41.760733 
L 145.465957 39.554505 
L 145.804168 38.083687 
L 146.48059 42.128438 
L 147.157012 48.379417 
L 147.833433 49.850236 
L 148.171644 53.159578 
L 148.509855 53.527283 
L 148.848066 51.321055 
L 149.186277 53.159578 
L 149.524488 52.056464 
L 149.862699 52.056464 
L 150.20091 49.114827 
L 150.539121 48.379417 
L 150.877332 44.702371 
L 151.215543 45.805485 
L 151.553754 45.43778 
L 151.891965 44.702371 
L 152.230176 43.231552 
L 152.568387 40.289915 
L 152.906598 39.92221 
L 153.244808 42.128438 
L 153.583019 41.393029 
L 153.92123 41.393029 
L 154.259441 42.128438 
L 154.597652 43.966961 
L 154.935863 41.393029 
L 155.274074 41.025324 
L 155.612285 37.715982 
L 155.950496 36.245163 
L 156.288707 33.303526 
L 156.626918 34.40664 
L 156.965129 31.465003 
L 157.30334 33.303526 
L 157.641551 32.935821 
L 157.979762 35.142049 
L 158.317973 35.877459 
L 158.656183 37.348277 
L 158.994394 36.612868 
L 159.332605 35.142049 
L 159.670816 35.142049 
L 160.347238 34.40664 
L 160.685449 32.935821 
L 161.02366 28.89107 
L 161.361871 27.052546 
L 161.700082 27.787956 
L 162.038293 28.89107 
L 162.376504 34.038935 
L 162.714715 30.729593 
L 163.052926 33.303526 
L 163.391137 34.774345 
L 163.729348 33.303526 
L 164.067558 34.774345 
L 164.405769 34.40664 
L 164.74398 35.877459 
L 165.082191 33.303526 
L 165.420402 34.774345 
L 165.758613 35.142049 
L 166.096824 41.760733 
L 166.773246 39.186801 
L 167.111457 35.877459 
L 167.449668 38.083687 
L 167.787879 38.083687 
L 168.12609 41.393029 
L 168.464301 38.451391 
L 168.802512 38.819096 
L 169.140723 35.509754 
L 169.478933 35.877459 
L 169.817144 32.200412 
L 170.155355 34.40664 
L 170.493566 32.935821 
L 170.831777 34.40664 
L 171.169988 32.935821 
L 171.508199 38.451391 
L 171.84641 36.980573 
L 172.522832 32.568117 
L 172.861043 32.568117 
L 173.199254 36.612868 
L 173.537465 36.612868 
L 173.875676 37.715982 
L 174.213887 35.877459 
L 174.552098 39.186801 
L 174.890308 38.451391 
L 175.228519 39.186801 
L 175.56673 37.715982 
L 176.243152 41.760733 
L 176.581363 42.128438 
L 176.919574 43.599257 
L 177.257785 43.599257 
L 177.595996 42.496143 
L 177.934207 39.186801 
L 178.610629 35.142049 
L 178.94884 32.935821 
L 179.287051 33.303526 
L 180.301684 36.245163 
L 180.639894 31.465003 
L 180.978105 31.465003 
L 181.316316 30.729593 
L 181.654527 32.935821 
L 181.992738 30.361888 
L 182.330949 33.671231 
L 182.66916 30.729593 
L 183.007371 35.509754 
L 183.345582 34.038935 
L 183.683793 35.877459 
L 184.022004 34.774345 
L 184.360215 32.568117 
L 184.698426 28.523365 
L 185.036637 28.89107 
L 185.374848 26.684842 
L 185.713059 26.317137 
L 186.38948 31.832707 
L 186.727691 32.568117 
L 187.065902 34.40664 
L 187.404113 35.509754 
L 187.742324 34.40664 
L 188.080535 36.245163 
L 188.418746 35.142049 
L 188.756957 33.303526 
L 189.095168 32.568117 
L 189.433379 28.89107 
L 189.77159 32.200412 
L 190.109801 32.568117 
L 190.448012 28.523365 
L 190.786223 31.832707 
L 191.124434 32.568117 
L 191.462644 32.935821 
L 191.800855 36.612868 
L 192.139066 35.509754 
L 192.815488 36.245163 
L 193.153699 35.509754 
L 193.49191 31.832707 
L 194.168332 39.186801 
L 194.506543 39.554505 
L 194.844754 34.774345 
L 195.182965 32.200412 
L 195.521176 32.568117 
L 195.859387 37.715982 
L 196.197598 36.612868 
L 196.535809 38.451391 
L 196.874019 37.715982 
L 197.21223 34.038935 
L 197.550441 33.303526 
L 197.888652 34.40664 
L 198.226863 37.715982 
L 198.565074 38.819096 
L 198.903285 42.496143 
L 199.241496 40.657619 
L 199.579707 40.657619 
L 199.917918 43.966961 
L 200.256129 42.863847 
L 200.59434 42.863847 
L 200.932551 39.186801 
L 201.270762 39.186801 
L 201.608973 36.245163 
L 201.947184 39.186801 
L 202.285394 39.92221 
L 203.300027 43.966961 
L 203.638238 39.186801 
L 203.976449 38.083687 
L 204.31466 36.245163 
L 204.652871 37.348277 
L 204.991082 37.715982 
L 205.329293 41.025324 
L 205.667504 36.612868 
L 206.005715 41.393029 
L 206.343926 41.025324 
L 206.682137 41.393029 
L 207.020348 37.348277 
L 207.358559 37.348277 
L 207.696769 39.186801 
L 208.03498 38.083687 
L 208.373191 36.245163 
L 208.711402 39.554505 
L 209.049613 35.509754 
L 209.387824 34.774345 
L 209.726035 35.509754 
L 210.064246 35.142049 
L 210.402457 34.038935 
L 210.740668 35.509754 
L 211.078879 35.877459 
L 211.41709 36.980573 
L 211.755301 38.819096 
L 212.093512 39.92221 
L 212.431723 39.554505 
L 212.769934 39.554505 
L 213.108145 40.289915 
L 213.446355 45.805485 
L 213.784566 43.599257 
L 214.122777 44.334666 
L 214.460988 43.231552 
L 214.799199 43.966961 
L 215.13741 48.011713 
L 215.475621 48.011713 
L 215.813832 45.070075 
L 216.152043 43.599257 
L 216.490254 44.334666 
L 216.828465 41.393029 
L 217.166676 35.142049 
L 217.504887 34.40664 
L 218.51952 31.097298 
L 218.85773 35.142049 
L 219.534152 39.186801 
L 220.210574 37.715982 
L 220.548785 40.289915 
L 220.886996 41.025324 
L 221.225207 41.025324 
L 221.563418 41.760733 
L 221.901629 36.980573 
L 222.23984 36.612868 
L 222.578051 34.038935 
L 222.916262 33.303526 
L 223.254473 35.142049 
L 223.592684 35.142049 
L 223.930895 36.612868 
L 224.269105 35.877459 
L 224.607316 33.671231 
L 224.945527 36.612868 
L 225.621949 34.038935 
L 225.96016 35.142049 
L 226.298371 34.40664 
L 226.636582 35.142049 
L 226.974793 40.289915 
L 227.313004 40.657619 
L 227.989426 35.877459 
L 228.327637 38.819096 
L 228.665848 37.715982 
L 229.004059 38.083687 
L 229.68048 43.231552 
L 230.018691 43.231552 
L 230.356902 45.43778 
L 231.033324 39.554505 
L 231.371535 41.760733 
L 231.709746 42.496143 
L 232.047957 39.92221 
L 232.386168 39.186801 
L 232.724379 41.393029 
L 233.06259 39.92221 
L 233.400801 41.025324 
L 233.739012 40.657619 
L 234.077223 36.612868 
L 234.415434 38.451391 
L 235.430066 31.465003 
L 236.106488 33.671231 
L 236.444699 32.200412 
L 236.78291 33.303526 
L 237.121121 31.097298 
L 237.459332 29.994184 
L 237.797543 32.568117 
L 238.135754 32.935821 
L 238.473965 37.348277 
L 238.812176 39.186801 
L 239.488598 36.980573 
L 239.826809 36.980573 
L 240.16502 39.554505 
L 240.503231 40.657619 
L 240.841441 39.92221 
L 241.179652 41.393029 
L 241.517863 45.070075 
L 241.856074 41.393029 
L 242.194285 41.393029 
L 242.532496 38.451391 
L 243.208918 38.451391 
L 243.547129 36.245163 
L 243.88534 39.186801 
L 244.223551 34.40664 
L 244.561762 32.200412 
L 244.899973 27.787956 
L 245.238184 27.420251 
L 245.576395 26.684842 
L 245.914606 25.581728 
L 246.252816 27.052546 
L 246.591027 24.478614 
L 247.267449 28.89107 
L 247.60566 29.626479 
L 247.943871 33.303526 
L 248.282082 33.671231 
L 248.958504 36.980573 
L 249.296715 39.186801 
L 249.634926 39.554505 
L 249.973137 40.289915 
L 250.311348 43.599257 
L 250.649559 40.657619 
L 250.98777 42.496143 
L 251.325981 43.231552 
L 251.664191 44.334666 
L 252.002402 40.657619 
L 252.340613 41.025324 
L 253.017035 34.40664 
L 253.355246 33.303526 
L 253.693457 32.935821 
L 254.031668 34.038935 
L 254.369879 33.671231 
L 254.70809 31.465003 
L 255.046301 28.523365 
L 255.722723 32.568117 
L 256.060934 32.935821 
L 256.399145 31.465003 
L 257.075566 34.774345 
L 257.413777 32.568117 
L 257.751988 34.40664 
L 258.090199 35.509754 
L 258.42841 34.40664 
L 258.766621 34.774345 
L 259.104832 36.245163 
L 259.443043 35.142049 
L 259.781254 32.568117 
L 260.119465 32.200412 
L 260.457676 31.097298 
L 260.795887 30.729593 
L 261.134098 29.626479 
L 261.472309 27.787956 
L 261.81052 28.89107 
L 262.148731 29.258774 
L 262.486941 25.949432 
L 262.825152 24.110909 
L 263.163363 26.317137 
L 263.501574 25.949432 
L 263.839785 26.684842 
L 264.177996 28.15566 
L 264.516207 28.523365 
L 264.854418 32.200412 
L 265.192629 31.832707 
L 265.53084 32.568117 
L 265.869051 30.361888 
L 266.207262 34.774345 
L 266.545473 35.509754 
L 266.883684 38.451391 
L 267.221895 36.980573 
L 267.560106 36.612868 
L 267.898316 36.980573 
L 268.236527 38.451391 
L 268.574738 38.083687 
L 269.589371 43.231552 
L 269.927582 41.025324 
L 270.265793 44.702371 
L 270.604004 41.760733 
L 270.942215 42.128438 
L 271.280426 40.657619 
L 271.618637 38.083687 
L 271.956848 38.451391 
L 272.295059 38.083687 
L 272.63327 39.92221 
L 272.971481 38.819096 
L 273.309692 45.805485 
L 273.647902 43.231552 
L 273.986113 47.276303 
L 274.324324 48.011713 
L 274.662535 51.321055 
L 275.338957 46.908599 
L 275.677168 47.644008 
L 276.015379 44.702371 
L 276.35359 45.43778 
L 276.691801 45.43778 
L 277.030012 42.863847 
L 277.706434 42.128438 
L 278.044645 39.554505 
L 278.382856 39.554505 
L 278.721067 42.863847 
L 279.059277 43.599257 
L 279.397488 37.348277 
L 279.735699 41.025324 
L 280.07391 41.025324 
L 280.412121 38.083687 
L 280.750332 38.451391 
L 281.088543 39.186801 
L 281.426754 39.554505 
L 281.764965 36.980573 
L 282.103176 32.568117 
L 282.441387 32.568117 
L 283.45602 39.186801 
L 283.794231 37.715982 
L 284.132442 40.657619 
L 284.470652 40.657619 
L 284.808863 42.496143 
L 285.147074 43.231552 
L 285.823496 40.657619 
L 286.161707 41.393029 
L 286.499918 40.657619 
L 287.514551 37.348277 
L 287.852762 38.819096 
L 288.190973 38.819096 
L 288.529184 37.715982 
L 288.867395 39.554505 
L 289.205606 38.083687 
L 289.882027 38.819096 
L 290.220238 41.025324 
L 290.558449 40.289915 
L 291.234871 35.509754 
L 291.573082 36.980573 
L 291.911293 34.038935 
L 292.249504 32.935821 
L 292.587715 29.626479 
L 292.925926 31.832707 
L 293.264137 32.568117 
L 293.940559 42.496143 
L 294.27877 39.92221 
L 294.616981 34.40664 
L 294.955192 36.245163 
L 295.293402 39.554505 
L 295.631613 39.554505 
L 295.969824 38.083687 
L 296.308035 39.186801 
L 296.646246 38.083687 
L 296.984457 38.451391 
L 297.322668 40.657619 
L 297.660879 39.186801 
L 298.337301 44.334666 
L 298.675512 45.070075 
L 299.013723 42.863847 
L 299.351934 45.805485 
L 299.690145 50.217941 
L 300.366567 56.46892 
L 300.704778 53.159578 
L 301.042988 54.262692 
L 301.381199 49.482531 
L 301.71941 48.011713 
L 302.057621 48.747122 
L 302.395832 47.276303 
L 302.734043 46.908599 
L 303.072254 45.805485 
L 303.410465 48.747122 
L 303.748676 50.217941 
L 304.086887 48.379417 
L 304.425098 47.644008 
L 304.763309 51.321055 
L 305.439731 43.599257 
L 305.777942 39.554505 
L 306.116153 41.025324 
L 306.454363 41.760733 
L 306.792574 36.980573 
L 307.130785 36.980573 
L 307.468996 37.715982 
L 308.145418 36.245163 
L 308.483629 36.612868 
L 309.160051 39.554505 
L 309.498262 40.289915 
L 309.836473 40.289915 
L 310.174684 39.92221 
L 310.512895 39.186801 
L 311.189317 39.186801 
L 311.527528 41.025324 
L 311.865738 47.644008 
L 312.203949 45.43778 
L 312.54216 48.747122 
L 312.880371 45.43778 
L 313.218582 49.482531 
L 313.556793 47.276303 
L 313.895004 48.379417 
L 314.233215 46.908599 
L 314.571426 46.173189 
L 314.909637 43.966961 
L 315.247848 45.43778 
L 315.586059 46.173189 
L 316.262481 41.393029 
L 316.600692 40.657619 
L 316.938903 40.657619 
L 317.277113 42.863847 
L 317.615324 40.657619 
L 317.953535 41.760733 
L 318.291746 46.173189 
L 318.629957 40.657619 
L 319.306379 50.585645 
L 319.64459 49.850236 
L 319.982801 50.95335 
L 320.321012 50.95335 
L 320.659223 52.424169 
L 321.335645 48.011713 
L 321.673856 46.908599 
L 322.012067 43.966961 
L 322.350278 43.966961 
L 322.688488 41.760733 
L 323.026699 44.334666 
L 323.36491 45.43778 
L 323.703121 43.966961 
L 324.041332 47.644008 
L 324.379543 45.070075 
L 324.717754 41.025324 
L 325.055965 39.92221 
L 325.394176 38.083687 
L 325.732387 39.554505 
L 326.070598 39.554505 
L 326.408809 40.657619 
L 326.74702 40.657619 
L 327.085231 38.451391 
L 328.099863 36.245163 
L 328.438074 36.980573 
L 328.776285 39.186801 
L 329.114496 42.863847 
L 329.790918 46.908599 
L 330.129129 43.231552 
L 330.46734 41.760733 
L 330.805551 42.496143 
L 331.143762 45.070075 
L 331.481973 44.702371 
L 331.820184 38.083687 
L 332.158395 43.966961 
L 332.496606 45.805485 
L 332.834817 44.702371 
L 333.173028 42.128438 
L 333.511239 45.805485 
L 333.849449 46.540894 
L 334.18766 47.644008 
L 334.525871 46.540894 
L 335.202293 49.482531 
L 335.878715 42.863847 
L 336.216926 38.083687 
L 336.555137 37.715982 
L 336.893348 36.980573 
L 337.231559 36.612868 
L 337.56977 40.289915 
L 337.907981 40.657619 
L 338.246192 38.083687 
L 338.584403 38.083687 
L 338.922614 36.245163 
L 339.260824 39.186801 
L 339.599035 39.554505 
L 339.937246 39.554505 
L 340.275457 36.245163 
L 340.613668 35.509754 
L 340.951879 33.303526 
L 341.29009 32.200412 
L 341.628301 28.523365 
L 341.966512 31.465003 
L 342.304723 32.935821 
L 342.642934 32.935821 
L 342.981145 32.200412 
L 343.319356 33.671231 
L 343.995778 28.89107 
L 344.333989 31.097298 
L 344.672199 35.877459 
L 345.01041 38.819096 
L 345.348621 35.509754 
L 345.686832 38.083687 
L 346.025043 37.715982 
L 346.363254 39.186801 
L 347.039676 39.92221 
L 347.377887 37.348277 
L 347.716098 37.348277 
L 348.054309 38.819096 
L 348.39252 39.554505 
L 348.730731 39.186801 
L 349.068942 39.554505 
L 349.407153 39.186801 
L 349.745364 41.025324 
L 350.083574 41.025324 
L 350.759996 39.554505 
L 351.098207 37.348277 
L 351.774629 41.393029 
L 352.11284 40.657619 
L 352.451051 43.231552 
L 352.789262 44.334666 
L 353.127473 43.599257 
L 353.465684 42.496143 
L 353.803895 38.819096 
L 354.142106 39.92221 
L 354.480317 38.819096 
L 354.818528 41.760733 
L 355.156739 39.554505 
L 355.494949 41.760733 
L 355.83316 39.92221 
L 356.171371 39.554505 
L 356.509582 41.760733 
L 356.847793 40.289915 
L 357.186004 41.393029 
L 357.524215 44.334666 
L 357.862426 43.599257 
L 358.200637 43.599257 
L 358.538848 49.482531 
L 358.877059 52.056464 
L 359.553481 47.276303 
L 359.891692 47.276303 
L 360.229903 43.966961 
L 360.568114 43.966961 
L 360.906325 41.393029 
L 361.244535 41.025324 
L 361.582746 41.393029 
L 361.920957 36.612868 
L 362.259168 36.612868 
L 362.597379 34.40664 
L 362.93559 34.40664 
L 363.612012 33.671231 
L 363.950223 38.083687 
L 364.288434 39.554505 
L 364.626645 38.819096 
L 364.964856 37.715982 
L 365.303067 34.774345 
L 365.641278 40.657619 
L 365.979489 36.980573 
L 366.3177 39.186801 
L 366.65591 42.496143 
L 366.994121 42.496143 
L 367.332332 40.657619 
L 367.670543 43.231552 
L 368.008754 43.231552 
L 368.346965 42.863847 
L 368.685176 45.805485 
L 369.023387 44.334666 
L 369.361598 41.025324 
L 369.699809 40.657619 
L 370.03802 38.451391 
L 370.376231 39.186801 
L 370.714442 39.186801 
L 371.390864 40.657619 
L 371.729075 42.128438 
L 372.067285 42.863847 
L 372.405496 42.496143 
L 372.743707 43.231552 
L 373.081918 42.128438 
L 373.420129 42.496143 
L 373.75834 42.128438 
L 374.096551 41.025324 
L 374.434762 36.612868 
L 374.772973 34.038935 
L 375.111184 37.715982 
L 375.449395 39.186801 
L 375.787606 37.715982 
L 376.125817 38.819096 
L 376.464028 39.186801 
L 376.802239 34.038935 
L 377.14045 35.142049 
L 377.47866 32.935821 
L 377.816871 33.671231 
L 378.155082 30.729593 
L 378.831504 28.89107 
L 379.169715 31.832707 
L 379.507926 30.729593 
L 379.846137 25.214023 
L 380.522559 30.361888 
L 380.86077 25.949432 
L 381.198981 27.787956 
L 381.537192 32.568117 
L 381.875403 31.832707 
L 382.213614 33.303526 
L 382.551825 33.671231 
L 382.890035 36.245163 
L 383.228246 33.303526 
L 383.904668 35.142049 
L 384.242879 41.393029 
L 384.58109 42.496143 
L 384.919301 45.070075 
L 385.257512 45.070075 
L 385.595723 43.599257 
L 386.272145 39.554505 
L 386.610356 35.509754 
L 386.948567 32.935821 
L 387.286778 33.671231 
L 387.624989 30.729593 
L 387.9632 30.361888 
L 388.301411 30.361888 
L 388.639621 33.671231 
L 388.977832 33.671231 
L 389.316043 38.083687 
L 389.654254 39.186801 
L 389.992465 39.554505 
L 390.330676 38.451391 
L 390.668887 38.083687 
L 391.345309 35.509754 
L 391.68352 35.877459 
L 392.021731 34.40664 
L 392.698153 37.348277 
L 393.036364 36.245163 
L 393.036364 36.245163 
" clip-path="url(#p08f9fabafd)" style="fill: none; stroke: #1f77b4; stroke-width: 1.5; stroke-linecap: square"/>
   </g>
   <g id="patch_7">
    <path d="M 38.27 303.64 
L 38.27 10.8 
" style="fill: none; stroke: #000000; stroke-width: 0.8; stroke-linejoin: miter; stroke-linecap: square"/>
   </g>
   <g id="patch_8">
    <path d="M 409.93 303.64 
L 409.93 10.8 
" style="fill: none; stroke: #000000; stroke-width: 0.8; stroke-linejoin: miter; stroke-linecap: square"/>
   </g>
   <g id="patch_9">
    <path d="M 38.27 303.64 
L 409.93 303.64 
" style="fill: none; stroke: #000000; stroke-width: 0.8; stroke-linejoin: miter; stroke-linecap: square"/>
   </g>
   <g id="patch_10">
    <path d="M 38.27 10.8 
L 409.93 10.8 
" style="fill: none; stroke: #000000; stroke-width: 0.8; stroke-linejoin: miter; stroke-linecap: square"/>
   </g>
   <g id="text_24">
    <!-- JC69 model with miu=0.1 -->
    <g transform="translate(147.489375 4.8) scale(0.12 -0.12)">
     <defs>
      <path id="DejaVuSans-4a" d="M 628 4666 
L 1259 4666 
L 1259 325 
Q 1259 -519 939 -900 
Q 619 -1281 -91 -1281 
L -331 -1281 
L -331 -750 
L -134 -750 
Q 284 -750 456 -515 
Q 628 -281 628 325 
L 628 4666 
z
" transform="scale(0.015625)"/>
      <path id="DejaVuSans-43" d="M 4122 4306 
L 4122 3641 
Q 3803 3938 3442 4084 
Q 3081 4231 2675 4231 
Q 1875 4231 1450 3742 
Q 1025 3253 1025 2328 
Q 1025 1406 1450 917 
Q 1875 428 2675 428 
Q 3081 428 3442 575 
Q 3803 722 4122 1019 
L 4122 359 
Q 3791 134 3420 21 
Q 3050 -91 2638 -91 
Q 1578 -91 968 557 
Q 359 1206 359 2328 
Q 359 3453 968 4101 
Q 1578 4750 2638 4750 
Q 3056 4750 3426 4639 
Q 3797 4528 4122 4306 
z
" transform="scale(0.015625)"/>
      <path id="DejaVuSans-39" d="M 703 97 
L 703 672 
Q 941 559 1184 500 
Q 1428 441 1663 441 
Q 2288 441 2617 861 
Q 2947 1281 2994 2138 
Q 2813 1869 2534 1725 
Q 2256 1581 1919 1581 
Q 1219 1581 811 2004 
Q 403 2428 403 3163 
Q 403 3881 828 4315 
Q 1253 4750 1959 4750 
Q 2769 4750 3195 4129 
Q 3622 3509 3622 2328 
Q 3622 1225 3098 567 
Q 2575 -91 1691 -91 
Q 1453 -91 1209 -44 
Q 966 3 703 97 
z
M 1959 2075 
Q 2384 2075 2632 2365 
Q 2881 2656 2881 3163 
Q 2881 3666 2632 3958 
Q 2384 4250 1959 4250 
Q 1534 4250 1286 3958 
Q 1038 3666 1038 3163 
Q 1038 2656 1286 2365 
Q 1534 2075 1959 2075 
z
" transform="scale(0.015625)"/>
      <path id="DejaVuSans-77" d="M 269 3500 
L 844 3500 
L 1563 769 
L 2278 3500 
L 2956 3500 
L 3675 769 
L 4391 3500 
L 4966 3500 
L 4050 0 
L 3372 0 
L 2619 2869 
L 1863 0 
L 1184 0 
L 269 3500 
z
" transform="scale(0.015625)"/>
      <path id="DejaVuSans-68" d="M 3513 2113 
L 3513 0 
L 2938 0 
L 2938 2094 
Q 2938 2591 2744 2837 
Q 2550 3084 2163 3084 
Q 1697 3084 1428 2787 
Q 1159 2491 1159 1978 
L 1159 0 
L 581 0 
L 581 4863 
L 1159 4863 
L 1159 2956 
Q 1366 3272 1645 3428 
Q 1925 3584 2291 3584 
Q 2894 3584 3203 3211 
Q 3513 2838 3513 2113 
z
" transform="scale(0.015625)"/>
      <path id="DejaVuSans-75" d="M 544 1381 
L 544 3500 
L 1119 3500 
L 1119 1403 
Q 1119 906 1312 657 
Q 1506 409 1894 409 
Q 2359 409 2629 706 
Q 2900 1003 2900 1516 
L 2900 3500 
L 3475 3500 
L 3475 0 
L 2900 0 
L 2900 538 
Q 2691 219 2414 64 
Q 2138 -91 1772 -91 
Q 1169 -91 856 284 
Q 544 659 544 1381 
z
M 1991 3584 
L 1991 3584 
z
" transform="scale(0.015625)"/>
      <path id="DejaVuSans-3d" d="M 678 2906 
L 4684 2906 
L 4684 2381 
L 678 2381 
L 678 2906 
z
M 678 1631 
L 4684 1631 
L 4684 1100 
L 678 1100 
L 678 1631 
z
" transform="scale(0.015625)"/>
      <path id="DejaVuSans-2e" d="M 684 794 
L 1344 794 
L 1344 0 
L 684 0 
L 684 794 
z
" transform="scale(0.015625)"/>
     </defs>
     <use xlink:href="#DejaVuSans-4a"/>
     <use xlink:href="#DejaVuSans-43" x="29.492188"/>
     <use xlink:href="#DejaVuSans-36" x="99.316406"/>
     <use xlink:href="#DejaVuSans-39" x="162.939453"/>
     <use xlink:href="#DejaVuSans-20" x="226.5625"/>
     <use xlink:href="#DejaVuSans-6d" x="258.349609"/>
     <use xlink:href="#DejaVuSans-6f" x="355.761719"/>
     <use xlink:href="#DejaVuSans-64" x="416.943359"/>
     <use xlink:href="#DejaVuSans-65" x="480.419922"/>
     <use xlink:href="#DejaVuSans-6c" x="541.943359"/>
     <use xlink:href="#DejaVuSans-20" x="569.726562"/>
     <use xlink:href="#DejaVuSans-77" x="601.513672"/>
     <use xlink:href="#DejaVuSans-69" x="683.300781"/>
     <use xlink:href="#DejaVuSans-74" x="711.083984"/>
     <use xlink:href="#DejaVuSans-68" x="750.292969"/>
     <use xlink:href="#DejaVuSans-20" x="813.671875"/>
     <use xlink:href="#DejaVuSans-6d" x="845.458984"/>
     <use xlink:href="#DejaVuSans-69" x="942.871094"/>
     <use xlink:href="#DejaVuSans-75" x="970.654297"/>
     <use xlink:href="#DejaVuSans-3d" x="1034.033203"/>
     <use xlink:href="#DejaVuSans-30" x="1117.822266"/>
     <use xlink:href="#DejaVuSans-2e" x="1181.445312"/>
     <use xlink:href="#DejaVuSans-31" x="1213.232422"/>
    </g>
   </g>
  </g>
 </g>
 <defs>
  <clipPath id="p08f9fabafd">
   <rect x="38.27" y="10.8" width="371.66" height="292.84"/>
  </clipPath>
 </defs>
</svg>
