<?xml version="1.0" encoding="utf-8" standalone="no"?>
<!DOCTYPE svg PUBLIC "-//W3C//DTD SVG 1.1//EN"
  "http://www.w3.org/Graphics/SVG/1.1/DTD/svg11.dtd">
<svg xmlns:xlink="http://www.w3.org/1999/xlink" width="460.8pt" height="345.6pt" viewBox="0 0 460.8 345.6" xmlns="http://www.w3.org/2000/svg" version="1.1">
 <metadata>
  <rdf:RDF xmlns:dc="http://purl.org/dc/elements/1.1/" xmlns:cc="http://creativecommons.org/ns#" xmlns:rdf="http://www.w3.org/1999/02/22-rdf-syntax-ns#">
   <cc:Work>
    <dc:type rdf:resource="http://purl.org/dc/dcmitype/StillImage"/>
    <dc:date>2023-03-07T15:33:15.072254</dc:date>
    <dc:format>image/svg+xml</dc:format>
    <dc:creator>
     <cc:Agent>
      <dc:title>Matplotlib v3.7.1, https://matplotlib.org/</dc:title>
     </cc:Agent>
    </dc:creator>
   </cc:Work>
  </rdf:RDF>
 </metadata>
 <defs>
  <style type="text/css">*{stroke-linejoin: round; stroke-linecap: butt}</style>
 </defs>
 <g id="figure_1">
  <g id="patch_1">
   <path d="M 0 345.6 
L 460.8 345.6 
L 460.8 0 
L 0 0 
z
" style="fill: #ffffff"/>
  </g>
  <g id="axes_1">
   <g id="patch_2">
    <path d="M 38.27 303.64 
L 409.93 303.64 
L 409.93 10.8 
L 38.27 10.8 
z
" style="fill: #ffffff"/>
   </g>
   <g id="matplotlib.axis_1">
    <g id="xtick_1">
     <g id="line2d_1">
      <defs>
       <path id="mbc5c2036cc" d="M 0 0 
L 0 3.5 
" style="stroke: #000000; stroke-width: 0.8"/>
      </defs>
      <g>
       <use xlink:href="#mbc5c2036cc" x="55.163636" y="303.64" style="stroke: #000000; stroke-width: 0.8"/>
      </g>
     </g>
     <g id="text_1">
      <!-- 0 -->
      <g transform="translate(51.982386 318.238437) scale(0.1 -0.1)">
       <defs>
        <path id="DejaVuSans-30" d="M 2034 4250 
Q 1547 4250 1301 3770 
Q 1056 3291 1056 2328 
Q 1056 1369 1301 889 
Q 1547 409 2034 409 
Q 2525 409 2770 889 
Q 3016 1369 3016 2328 
Q 3016 3291 2770 3770 
Q 2525 4250 2034 4250 
z
M 2034 4750 
Q 2819 4750 3233 4129 
Q 3647 3509 3647 2328 
Q 3647 1150 3233 529 
Q 2819 -91 2034 -91 
Q 1250 -91 836 529 
Q 422 1150 422 2328 
Q 422 3509 836 4129 
Q 1250 4750 2034 4750 
z
" transform="scale(0.015625)"/>
       </defs>
       <use xlink:href="#DejaVuSans-30"/>
      </g>
     </g>
    </g>
    <g id="xtick_2">
     <g id="line2d_2">
      <g>
       <use xlink:href="#mbc5c2036cc" x="122.805824" y="303.64" style="stroke: #000000; stroke-width: 0.8"/>
      </g>
     </g>
     <g id="text_2">
      <!-- 200 -->
      <g transform="translate(113.262074 318.238437) scale(0.1 -0.1)">
       <defs>
        <path id="DejaVuSans-32" d="M 1228 531 
L 3431 531 
L 3431 0 
L 469 0 
L 469 531 
Q 828 903 1448 1529 
Q 2069 2156 2228 2338 
Q 2531 2678 2651 2914 
Q 2772 3150 2772 3378 
Q 2772 3750 2511 3984 
Q 2250 4219 1831 4219 
Q 1534 4219 1204 4116 
Q 875 4013 500 3803 
L 500 4441 
Q 881 4594 1212 4672 
Q 1544 4750 1819 4750 
Q 2544 4750 2975 4387 
Q 3406 4025 3406 3419 
Q 3406 3131 3298 2873 
Q 3191 2616 2906 2266 
Q 2828 2175 2409 1742 
Q 1991 1309 1228 531 
z
" transform="scale(0.015625)"/>
       </defs>
       <use xlink:href="#DejaVuSans-32"/>
       <use xlink:href="#DejaVuSans-30" x="63.623047"/>
       <use xlink:href="#DejaVuSans-30" x="127.246094"/>
      </g>
     </g>
    </g>
    <g id="xtick_3">
     <g id="line2d_3">
      <g>
       <use xlink:href="#mbc5c2036cc" x="190.448012" y="303.64" style="stroke: #000000; stroke-width: 0.8"/>
      </g>
     </g>
     <g id="text_3">
      <!-- 400 -->
      <g transform="translate(180.904262 318.238437) scale(0.1 -0.1)">
       <defs>
        <path id="DejaVuSans-34" d="M 2419 4116 
L 825 1625 
L 2419 1625 
L 2419 4116 
z
M 2253 4666 
L 3047 4666 
L 3047 1625 
L 3713 1625 
L 3713 1100 
L 3047 1100 
L 3047 0 
L 2419 0 
L 2419 1100 
L 313 1100 
L 313 1709 
L 2253 4666 
z
" transform="scale(0.015625)"/>
       </defs>
       <use xlink:href="#DejaVuSans-34"/>
       <use xlink:href="#DejaVuSans-30" x="63.623047"/>
       <use xlink:href="#DejaVuSans-30" x="127.246094"/>
      </g>
     </g>
    </g>
    <g id="xtick_4">
     <g id="line2d_4">
      <g>
       <use xlink:href="#mbc5c2036cc" x="258.090199" y="303.64" style="stroke: #000000; stroke-width: 0.8"/>
      </g>
     </g>
     <g id="text_4">
      <!-- 600 -->
      <g transform="translate(248.546449 318.238437) scale(0.1 -0.1)">
       <defs>
        <path id="DejaVuSans-36" d="M 2113 2584 
Q 1688 2584 1439 2293 
Q 1191 2003 1191 1497 
Q 1191 994 1439 701 
Q 1688 409 2113 409 
Q 2538 409 2786 701 
Q 3034 994 3034 1497 
Q 3034 2003 2786 2293 
Q 2538 2584 2113 2584 
z
M 3366 4563 
L 3366 3988 
Q 3128 4100 2886 4159 
Q 2644 4219 2406 4219 
Q 1781 4219 1451 3797 
Q 1122 3375 1075 2522 
Q 1259 2794 1537 2939 
Q 1816 3084 2150 3084 
Q 2853 3084 3261 2657 
Q 3669 2231 3669 1497 
Q 3669 778 3244 343 
Q 2819 -91 2113 -91 
Q 1303 -91 875 529 
Q 447 1150 447 2328 
Q 447 3434 972 4092 
Q 1497 4750 2381 4750 
Q 2619 4750 2861 4703 
Q 3103 4656 3366 4563 
z
" transform="scale(0.015625)"/>
       </defs>
       <use xlink:href="#DejaVuSans-36"/>
       <use xlink:href="#DejaVuSans-30" x="63.623047"/>
       <use xlink:href="#DejaVuSans-30" x="127.246094"/>
      </g>
     </g>
    </g>
    <g id="xtick_5">
     <g id="line2d_5">
      <g>
       <use xlink:href="#mbc5c2036cc" x="325.732387" y="303.64" style="stroke: #000000; stroke-width: 0.8"/>
      </g>
     </g>
     <g id="text_5">
      <!-- 800 -->
      <g transform="translate(316.188637 318.238437) scale(0.1 -0.1)">
       <defs>
        <path id="DejaVuSans-38" d="M 2034 2216 
Q 1584 2216 1326 1975 
Q 1069 1734 1069 1313 
Q 1069 891 1326 650 
Q 1584 409 2034 409 
Q 2484 409 2743 651 
Q 3003 894 3003 1313 
Q 3003 1734 2745 1975 
Q 2488 2216 2034 2216 
z
M 1403 2484 
Q 997 2584 770 2862 
Q 544 3141 544 3541 
Q 544 4100 942 4425 
Q 1341 4750 2034 4750 
Q 2731 4750 3128 4425 
Q 3525 4100 3525 3541 
Q 3525 3141 3298 2862 
Q 3072 2584 2669 2484 
Q 3125 2378 3379 2068 
Q 3634 1759 3634 1313 
Q 3634 634 3220 271 
Q 2806 -91 2034 -91 
Q 1263 -91 848 271 
Q 434 634 434 1313 
Q 434 1759 690 2068 
Q 947 2378 1403 2484 
z
M 1172 3481 
Q 1172 3119 1398 2916 
Q 1625 2713 2034 2713 
Q 2441 2713 2670 2916 
Q 2900 3119 2900 3481 
Q 2900 3844 2670 4047 
Q 2441 4250 2034 4250 
Q 1625 4250 1398 4047 
Q 1172 3844 1172 3481 
z
" transform="scale(0.015625)"/>
       </defs>
       <use xlink:href="#DejaVuSans-38"/>
       <use xlink:href="#DejaVuSans-30" x="63.623047"/>
       <use xlink:href="#DejaVuSans-30" x="127.246094"/>
      </g>
     </g>
    </g>
    <g id="xtick_6">
     <g id="line2d_6">
      <g>
       <use xlink:href="#mbc5c2036cc" x="393.374575" y="303.64" style="stroke: #000000; stroke-width: 0.8"/>
      </g>
     </g>
     <g id="text_6">
      <!-- 1000 -->
      <g transform="translate(380.649575 318.238437) scale(0.1 -0.1)">
       <defs>
        <path id="DejaVuSans-31" d="M 794 531 
L 1825 531 
L 1825 4091 
L 703 3866 
L 703 4441 
L 1819 4666 
L 2450 4666 
L 2450 531 
L 3481 531 
L 3481 0 
L 794 0 
L 794 531 
z
" transform="scale(0.015625)"/>
       </defs>
       <use xlink:href="#DejaVuSans-31"/>
       <use xlink:href="#DejaVuSans-30" x="63.623047"/>
       <use xlink:href="#DejaVuSans-30" x="127.246094"/>
       <use xlink:href="#DejaVuSans-30" x="190.869141"/>
      </g>
     </g>
    </g>
    <g id="text_7">
     <!-- Model steps -->
     <g transform="translate(194.077344 331.916562) scale(0.1 -0.1)">
      <defs>
       <path id="DejaVuSans-4d" d="M 628 4666 
L 1569 4666 
L 2759 1491 
L 3956 4666 
L 4897 4666 
L 4897 0 
L 4281 0 
L 4281 4097 
L 3078 897 
L 2444 897 
L 1241 4097 
L 1241 0 
L 628 0 
L 628 4666 
z
" transform="scale(0.015625)"/>
       <path id="DejaVuSans-6f" d="M 1959 3097 
Q 1497 3097 1228 2736 
Q 959 2375 959 1747 
Q 959 1119 1226 758 
Q 1494 397 1959 397 
Q 2419 397 2687 759 
Q 2956 1122 2956 1747 
Q 2956 2369 2687 2733 
Q 2419 3097 1959 3097 
z
M 1959 3584 
Q 2709 3584 3137 3096 
Q 3566 2609 3566 1747 
Q 3566 888 3137 398 
Q 2709 -91 1959 -91 
Q 1206 -91 779 398 
Q 353 888 353 1747 
Q 353 2609 779 3096 
Q 1206 3584 1959 3584 
z
" transform="scale(0.015625)"/>
       <path id="DejaVuSans-64" d="M 2906 2969 
L 2906 4863 
L 3481 4863 
L 3481 0 
L 2906 0 
L 2906 525 
Q 2725 213 2448 61 
Q 2172 -91 1784 -91 
Q 1150 -91 751 415 
Q 353 922 353 1747 
Q 353 2572 751 3078 
Q 1150 3584 1784 3584 
Q 2172 3584 2448 3432 
Q 2725 3281 2906 2969 
z
M 947 1747 
Q 947 1113 1208 752 
Q 1469 391 1925 391 
Q 2381 391 2643 752 
Q 2906 1113 2906 1747 
Q 2906 2381 2643 2742 
Q 2381 3103 1925 3103 
Q 1469 3103 1208 2742 
Q 947 2381 947 1747 
z
" transform="scale(0.015625)"/>
       <path id="DejaVuSans-65" d="M 3597 1894 
L 3597 1613 
L 953 1613 
Q 991 1019 1311 708 
Q 1631 397 2203 397 
Q 2534 397 2845 478 
Q 3156 559 3463 722 
L 3463 178 
Q 3153 47 2828 -22 
Q 2503 -91 2169 -91 
Q 1331 -91 842 396 
Q 353 884 353 1716 
Q 353 2575 817 3079 
Q 1281 3584 2069 3584 
Q 2775 3584 3186 3129 
Q 3597 2675 3597 1894 
z
M 3022 2063 
Q 3016 2534 2758 2815 
Q 2500 3097 2075 3097 
Q 1594 3097 1305 2825 
Q 1016 2553 972 2059 
L 3022 2063 
z
" transform="scale(0.015625)"/>
       <path id="DejaVuSans-6c" d="M 603 4863 
L 1178 4863 
L 1178 0 
L 603 0 
L 603 4863 
z
" transform="scale(0.015625)"/>
       <path id="DejaVuSans-20" transform="scale(0.015625)"/>
       <path id="DejaVuSans-73" d="M 2834 3397 
L 2834 2853 
Q 2591 2978 2328 3040 
Q 2066 3103 1784 3103 
Q 1356 3103 1142 2972 
Q 928 2841 928 2578 
Q 928 2378 1081 2264 
Q 1234 2150 1697 2047 
L 1894 2003 
Q 2506 1872 2764 1633 
Q 3022 1394 3022 966 
Q 3022 478 2636 193 
Q 2250 -91 1575 -91 
Q 1294 -91 989 -36 
Q 684 19 347 128 
L 347 722 
Q 666 556 975 473 
Q 1284 391 1588 391 
Q 1994 391 2212 530 
Q 2431 669 2431 922 
Q 2431 1156 2273 1281 
Q 2116 1406 1581 1522 
L 1381 1569 
Q 847 1681 609 1914 
Q 372 2147 372 2553 
Q 372 3047 722 3315 
Q 1072 3584 1716 3584 
Q 2034 3584 2315 3537 
Q 2597 3491 2834 3397 
z
" transform="scale(0.015625)"/>
       <path id="DejaVuSans-74" d="M 1172 4494 
L 1172 3500 
L 2356 3500 
L 2356 3053 
L 1172 3053 
L 1172 1153 
Q 1172 725 1289 603 
Q 1406 481 1766 481 
L 2356 481 
L 2356 0 
L 1766 0 
Q 1100 0 847 248 
Q 594 497 594 1153 
L 594 3053 
L 172 3053 
L 172 3500 
L 594 3500 
L 594 4494 
L 1172 4494 
z
" transform="scale(0.015625)"/>
       <path id="DejaVuSans-70" d="M 1159 525 
L 1159 -1331 
L 581 -1331 
L 581 3500 
L 1159 3500 
L 1159 2969 
Q 1341 3281 1617 3432 
Q 1894 3584 2278 3584 
Q 2916 3584 3314 3078 
Q 3713 2572 3713 1747 
Q 3713 922 3314 415 
Q 2916 -91 2278 -91 
Q 1894 -91 1617 61 
Q 1341 213 1159 525 
z
M 3116 1747 
Q 3116 2381 2855 2742 
Q 2594 3103 2138 3103 
Q 1681 3103 1420 2742 
Q 1159 2381 1159 1747 
Q 1159 1113 1420 752 
Q 1681 391 2138 391 
Q 2594 391 2855 752 
Q 3116 1113 3116 1747 
z
" transform="scale(0.015625)"/>
      </defs>
      <use xlink:href="#DejaVuSans-4d"/>
      <use xlink:href="#DejaVuSans-6f" x="86.279297"/>
      <use xlink:href="#DejaVuSans-64" x="147.460938"/>
      <use xlink:href="#DejaVuSans-65" x="210.9375"/>
      <use xlink:href="#DejaVuSans-6c" x="272.460938"/>
      <use xlink:href="#DejaVuSans-20" x="300.244141"/>
      <use xlink:href="#DejaVuSans-73" x="332.03125"/>
      <use xlink:href="#DejaVuSans-74" x="384.130859"/>
      <use xlink:href="#DejaVuSans-65" x="423.339844"/>
      <use xlink:href="#DejaVuSans-70" x="484.863281"/>
      <use xlink:href="#DejaVuSans-73" x="548.339844"/>
     </g>
    </g>
   </g>
   <g id="matplotlib.axis_2">
    <g id="ytick_1">
     <g id="line2d_7">
      <defs>
       <path id="m5ae0f757d0" d="M 0 0 
L -3.5 0 
" style="stroke: #000000; stroke-width: 0.8"/>
      </defs>
      <g>
       <use xlink:href="#m5ae0f757d0" x="38.27" y="290.598352" style="stroke: #000000; stroke-width: 0.8"/>
      </g>
     </g>
     <g id="text_8">
      <!-- 0 -->
      <g style="fill: #d62728" transform="translate(24.9075 294.397571) scale(0.1 -0.1)">
       <use xlink:href="#DejaVuSans-30"/>
      </g>
     </g>
    </g>
    <g id="ytick_2">
     <g id="line2d_8">
      <g>
       <use xlink:href="#m5ae0f757d0" x="38.27" y="236.925745" style="stroke: #000000; stroke-width: 0.8"/>
      </g>
     </g>
     <g id="text_9">
      <!-- 1 -->
      <g style="fill: #d62728" transform="translate(24.9075 240.724964) scale(0.1 -0.1)">
       <use xlink:href="#DejaVuSans-31"/>
      </g>
     </g>
    </g>
    <g id="ytick_3">
     <g id="line2d_9">
      <g>
       <use xlink:href="#m5ae0f757d0" x="38.27" y="183.253137" style="stroke: #000000; stroke-width: 0.8"/>
      </g>
     </g>
     <g id="text_10">
      <!-- 2 -->
      <g style="fill: #d62728" transform="translate(24.9075 187.052356) scale(0.1 -0.1)">
       <use xlink:href="#DejaVuSans-32"/>
      </g>
     </g>
    </g>
    <g id="ytick_4">
     <g id="line2d_10">
      <g>
       <use xlink:href="#m5ae0f757d0" x="38.27" y="129.58053" style="stroke: #000000; stroke-width: 0.8"/>
      </g>
     </g>
     <g id="text_11">
      <!-- 3 -->
      <g style="fill: #d62728" transform="translate(24.9075 133.379749) scale(0.1 -0.1)">
       <defs>
        <path id="DejaVuSans-33" d="M 2597 2516 
Q 3050 2419 3304 2112 
Q 3559 1806 3559 1356 
Q 3559 666 3084 287 
Q 2609 -91 1734 -91 
Q 1441 -91 1130 -33 
Q 819 25 488 141 
L 488 750 
Q 750 597 1062 519 
Q 1375 441 1716 441 
Q 2309 441 2620 675 
Q 2931 909 2931 1356 
Q 2931 1769 2642 2001 
Q 2353 2234 1838 2234 
L 1294 2234 
L 1294 2753 
L 1863 2753 
Q 2328 2753 2575 2939 
Q 2822 3125 2822 3475 
Q 2822 3834 2567 4026 
Q 2313 4219 1838 4219 
Q 1578 4219 1281 4162 
Q 984 4106 628 3988 
L 628 4550 
Q 988 4650 1302 4700 
Q 1616 4750 1894 4750 
Q 2613 4750 3031 4423 
Q 3450 4097 3450 3541 
Q 3450 3153 3228 2886 
Q 3006 2619 2597 2516 
z
" transform="scale(0.015625)"/>
       </defs>
       <use xlink:href="#DejaVuSans-33"/>
      </g>
     </g>
    </g>
    <g id="ytick_5">
     <g id="line2d_11">
      <g>
       <use xlink:href="#m5ae0f757d0" x="38.27" y="75.907922" style="stroke: #000000; stroke-width: 0.8"/>
      </g>
     </g>
     <g id="text_12">
      <!-- 4 -->
      <g style="fill: #d62728" transform="translate(24.9075 79.707141) scale(0.1 -0.1)">
       <use xlink:href="#DejaVuSans-34"/>
      </g>
     </g>
    </g>
    <g id="ytick_6">
     <g id="line2d_12">
      <g>
       <use xlink:href="#m5ae0f757d0" x="38.27" y="22.235315" style="stroke: #000000; stroke-width: 0.8"/>
      </g>
     </g>
     <g id="text_13">
      <!-- 5 -->
      <g style="fill: #d62728" transform="translate(24.9075 26.034533) scale(0.1 -0.1)">
       <defs>
        <path id="DejaVuSans-35" d="M 691 4666 
L 3169 4666 
L 3169 4134 
L 1269 4134 
L 1269 2991 
Q 1406 3038 1543 3061 
Q 1681 3084 1819 3084 
Q 2600 3084 3056 2656 
Q 3513 2228 3513 1497 
Q 3513 744 3044 326 
Q 2575 -91 1722 -91 
Q 1428 -91 1123 -41 
Q 819 9 494 109 
L 494 744 
Q 775 591 1075 516 
Q 1375 441 1709 441 
Q 2250 441 2565 725 
Q 2881 1009 2881 1497 
Q 2881 1984 2565 2268 
Q 2250 2553 1709 2553 
Q 1456 2553 1204 2497 
Q 953 2441 691 2322 
L 691 4666 
z
" transform="scale(0.015625)"/>
       </defs>
       <use xlink:href="#DejaVuSans-35"/>
      </g>
     </g>
    </g>
    <g id="text_14">
     <!-- Model distance -->
     <g style="fill: #d62728" transform="translate(18.827813 195.009062) rotate(-90) scale(0.1 -0.1)">
      <defs>
       <path id="DejaVuSans-69" d="M 603 3500 
L 1178 3500 
L 1178 0 
L 603 0 
L 603 3500 
z
M 603 4863 
L 1178 4863 
L 1178 4134 
L 603 4134 
L 603 4863 
z
" transform="scale(0.015625)"/>
       <path id="DejaVuSans-61" d="M 2194 1759 
Q 1497 1759 1228 1600 
Q 959 1441 959 1056 
Q 959 750 1161 570 
Q 1363 391 1709 391 
Q 2188 391 2477 730 
Q 2766 1069 2766 1631 
L 2766 1759 
L 2194 1759 
z
M 3341 1997 
L 3341 0 
L 2766 0 
L 2766 531 
Q 2569 213 2275 61 
Q 1981 -91 1556 -91 
Q 1019 -91 701 211 
Q 384 513 384 1019 
Q 384 1609 779 1909 
Q 1175 2209 1959 2209 
L 2766 2209 
L 2766 2266 
Q 2766 2663 2505 2880 
Q 2244 3097 1772 3097 
Q 1472 3097 1187 3025 
Q 903 2953 641 2809 
L 641 3341 
Q 956 3463 1253 3523 
Q 1550 3584 1831 3584 
Q 2591 3584 2966 3190 
Q 3341 2797 3341 1997 
z
" transform="scale(0.015625)"/>
       <path id="DejaVuSans-6e" d="M 3513 2113 
L 3513 0 
L 2938 0 
L 2938 2094 
Q 2938 2591 2744 2837 
Q 2550 3084 2163 3084 
Q 1697 3084 1428 2787 
Q 1159 2491 1159 1978 
L 1159 0 
L 581 0 
L 581 3500 
L 1159 3500 
L 1159 2956 
Q 1366 3272 1645 3428 
Q 1925 3584 2291 3584 
Q 2894 3584 3203 3211 
Q 3513 2838 3513 2113 
z
" transform="scale(0.015625)"/>
       <path id="DejaVuSans-63" d="M 3122 3366 
L 3122 2828 
Q 2878 2963 2633 3030 
Q 2388 3097 2138 3097 
Q 1578 3097 1268 2742 
Q 959 2388 959 1747 
Q 959 1106 1268 751 
Q 1578 397 2138 397 
Q 2388 397 2633 464 
Q 2878 531 3122 666 
L 3122 134 
Q 2881 22 2623 -34 
Q 2366 -91 2075 -91 
Q 1284 -91 818 406 
Q 353 903 353 1747 
Q 353 2603 823 3093 
Q 1294 3584 2113 3584 
Q 2378 3584 2631 3529 
Q 2884 3475 3122 3366 
z
" transform="scale(0.015625)"/>
      </defs>
      <use xlink:href="#DejaVuSans-4d"/>
      <use xlink:href="#DejaVuSans-6f" x="86.279297"/>
      <use xlink:href="#DejaVuSans-64" x="147.460938"/>
      <use xlink:href="#DejaVuSans-65" x="210.9375"/>
      <use xlink:href="#DejaVuSans-6c" x="272.460938"/>
      <use xlink:href="#DejaVuSans-20" x="300.244141"/>
      <use xlink:href="#DejaVuSans-64" x="332.03125"/>
      <use xlink:href="#DejaVuSans-69" x="395.507812"/>
      <use xlink:href="#DejaVuSans-73" x="423.291016"/>
      <use xlink:href="#DejaVuSans-74" x="475.390625"/>
      <use xlink:href="#DejaVuSans-61" x="514.599609"/>
      <use xlink:href="#DejaVuSans-6e" x="575.878906"/>
      <use xlink:href="#DejaVuSans-63" x="639.257812"/>
      <use xlink:href="#DejaVuSans-65" x="694.238281"/>
     </g>
    </g>
   </g>
   <g id="line2d_13">
    <path d="M 55.163636 290.329091 
L 55.840058 289.510328 
L 56.178269 288.955085 
L 56.51648 288.618226 
L 56.854691 287.878547 
L 58.207535 286.057831 
L 59.222168 285.207781 
L 60.575011 283.834628 
L 61.589644 282.675219 
L 61.927855 281.949894 
L 62.266066 281.883303 
L 62.942488 281.211259 
L 63.280699 280.734063 
L 63.61891 279.902616 
L 63.957121 279.551047 
L 64.295332 279.409555 
L 64.971754 278.694537 
L 65.309965 277.893064 
L 65.648175 277.449076 
L 65.986386 277.225233 
L 67.001019 275.544537 
L 68.015652 274.756753 
L 68.692074 273.953245 
L 69.030285 273.38109 
L 69.368496 273.050456 
L 70.383129 271.700076 
L 71.05955 271.181771 
L 71.397761 271.181771 
L 72.412394 269.039121 
L 72.750605 268.670657 
L 73.427027 267.734464 
L 73.765238 267.353805 
L 74.103449 267.544584 
L 75.456293 266.77598 
L 75.794504 265.992413 
L 76.132715 265.694598 
L 76.470925 264.889482 
L 76.809136 265.193291 
L 77.147347 264.991007 
L 77.485558 264.480804 
L 77.823769 264.685662 
L 78.500191 264.583363 
L 79.176613 264.067934 
L 79.514824 263.440579 
L 80.191246 262.91021 
L 80.867668 261.937572 
L 81.54409 260.489814 
L 81.8823 260.376261 
L 82.220511 259.91882 
L 82.558722 259.803642 
L 82.896933 260.14819 
L 83.573355 259.572294 
L 84.926199 257.550227 
L 85.26441 257.550227 
L 85.602621 256.562338 
L 85.940832 256.059151 
L 86.279043 255.292376 
L 86.617254 255.292376 
L 87.293675 254.772957 
L 87.970097 254.772957 
L 88.308308 254.642048 
L 89.322941 253.98104 
L 89.661152 253.308997 
L 89.999363 253.444306 
L 90.337574 253.308997 
L 90.675785 253.308997 
L 91.352207 252.348879 
L 91.690418 252.625543 
L 92.028629 252.070301 
L 92.36684 251.930285 
L 92.705051 252.209831 
L 93.043261 252.209831 
L 93.381472 252.348879 
L 93.719683 251.648784 
L 94.396105 251.222807 
L 94.734316 251.365301 
L 95.072527 250.647734 
L 95.410738 250.357087 
L 96.08716 249.32297 
L 96.425371 248.261586 
L 96.763582 247.797998 
L 97.101793 247.642275 
L 97.440004 247.171457 
L 97.778215 247.485946 
L 98.116426 247.329009 
L 98.454636 246.695067 
L 99.131058 246.050982 
L 99.469269 245.065109 
L 99.80748 244.898424 
L 100.483902 244.224694 
L 100.822113 244.054484 
L 101.160324 243.192472 
L 101.498535 242.666262 
L 101.836746 241.41101 
L 102.174957 241.22845 
L 102.513168 240.860827 
L 102.851379 239.926807 
L 103.18959 240.115353 
L 103.866011 238.970599 
L 104.204222 239.355812 
L 104.880644 238.385778 
L 105.218855 238.188935 
L 105.557066 238.385778 
L 105.895277 238.385778 
L 106.233488 238.188935 
L 106.571699 237.391791 
L 106.90991 236.98722 
L 107.924543 235.327007 
L 108.262754 235.327007 
L 108.600965 235.114582 
L 108.939176 235.538317 
L 109.277386 234.470497 
L 109.615597 234.470497 
L 109.953808 233.595366 
L 110.292019 233.595366 
L 110.968441 231.320497 
L 111.306652 231.553857 
L 111.644863 230.84968 
L 111.983074 229.403256 
L 112.321285 228.90933 
L 112.659496 228.90933 
L 112.997707 229.403256 
L 113.335918 228.90933 
L 113.674129 229.403256 
L 114.01234 230.37329 
L 114.350551 230.612189 
L 114.688761 231.085777 
L 115.026972 230.612189 
L 115.703394 228.156889 
L 116.041605 227.902916 
L 116.379816 227.390114 
L 116.718027 227.647332 
L 117.394449 226.344485 
L 117.73266 226.078778 
L 118.070871 224.998056 
L 118.409082 224.446617 
L 118.747293 224.446617 
L 119.085504 223.60503 
L 119.423715 223.887518 
L 119.761926 222.454824 
L 120.100137 222.745471 
L 120.438347 222.162063 
L 120.776558 222.454824 
L 121.114769 222.454824 
L 121.45298 221.867157 
L 121.791191 220.969251 
L 122.467613 221.570075 
L 122.805824 219.426746 
L 123.144035 219.111023 
L 123.820457 216.828783 
L 124.158668 216.828783 
L 124.496879 217.822771 
L 125.173301 216.152222 
L 125.511512 215.809629 
L 125.849722 214.409332 
L 126.187933 213.690484 
L 126.526144 214.051513 
L 126.864355 214.764 
L 127.202566 214.764 
L 127.540777 213.690484 
L 127.878988 214.409332 
L 128.217199 212.958564 
L 128.55541 212.587553 
L 129.231832 211.068337 
L 129.570043 211.45355 
L 129.908254 211.068337 
L 130.246465 212.21309 
L 130.584676 211.45355 
L 130.922887 211.45355 
L 131.261097 211.068337 
L 131.599308 209.890073 
L 131.937519 210.286672 
L 132.27573 209.890073 
L 132.613941 208.263409 
L 132.952152 208.263409 
L 133.290363 207.424745 
L 133.628574 208.263409 
L 133.966785 208.263409 
L 134.304996 207.846261 
L 134.643207 207.846261 
L 134.981418 208.263409 
L 135.319629 209.084957 
L 135.65784 207.424745 
L 135.996051 206.998767 
L 136.334262 206.133047 
L 136.672472 203.883609 
L 137.348894 201.500994 
L 137.687105 198.968432 
L 138.025316 198.968432 
L 138.701738 196.265776 
L 139.039949 195.131772 
L 140.054582 196.821018 
L 140.392793 196.821018 
L 140.731004 196.265776 
L 141.407426 193.368522 
L 141.745637 192.76318 
L 142.422058 193.964895 
L 142.760269 193.964895 
L 143.09848 194.552562 
L 143.436691 194.552562 
L 143.774902 195.131772 
L 144.113113 194.552562 
L 144.451324 192.76318 
L 144.789535 190.246457 
L 145.127746 189.591899 
L 145.465957 189.591899 
L 145.804168 192.76318 
L 146.48059 190.246457 
L 146.818801 190.246457 
L 147.157012 190.890542 
L 147.495222 190.246457 
L 147.833433 190.246457 
L 148.171644 189.591899 
L 148.509855 188.249959 
L 148.848066 187.561832 
L 149.186277 186.14925 
L 150.20091 179.943999 
L 150.539121 182.38441 
L 150.877332 183.932849 
L 151.215543 184.685291 
L 151.553754 186.861737 
L 151.891965 188.249959 
L 152.230176 186.861737 
L 152.568387 184.685291 
L 152.906598 184.685291 
L 153.244808 183.932849 
L 153.583019 183.932849 
L 153.92123 184.685291 
L 154.259441 184.685291 
L 154.597652 186.861737 
L 154.935863 187.561832 
L 155.274074 185.423925 
L 155.612285 186.861737 
L 155.950496 188.926521 
L 156.288707 188.249959 
L 156.626918 188.926521 
L 156.965129 190.890542 
L 157.30334 192.148596 
L 157.641551 193.964895 
L 157.979762 195.131772 
L 158.317973 194.552562 
L 158.656183 195.131772 
L 159.332605 192.76318 
L 159.670816 192.148596 
L 160.009027 189.591899 
L 160.347238 188.249959 
L 160.685449 188.249959 
L 161.02366 187.561832 
L 161.361871 189.591899 
L 161.700082 185.423925 
L 162.038293 186.14925 
L 162.376504 184.685291 
L 162.714715 186.14925 
L 163.052926 186.861737 
L 163.391137 185.423925 
L 164.405769 183.166074 
L 164.74398 180.774017 
L 165.420402 180.774017 
L 165.758613 183.932849 
L 166.096824 184.685291 
L 166.435035 183.166074 
L 166.773246 180.774017 
L 167.111457 181.587266 
L 167.449668 183.166074 
L 167.787879 181.587266 
L 168.12609 181.587266 
L 168.464301 183.166074 
L 169.140723 179.096505 
L 169.478933 179.943999 
L 169.817144 177.346036 
L 170.155355 178.230784 
L 170.493566 177.346036 
L 170.831777 175.515972 
L 171.169988 174.568765 
L 171.508199 178.230784 
L 171.84641 177.346036 
L 172.184621 179.096505 
L 172.522832 179.096505 
L 172.861043 179.943999 
L 173.199254 179.943999 
L 173.875676 176.441403 
L 174.213887 175.515972 
L 174.552098 176.441403 
L 174.890308 174.568765 
L 175.56673 174.568765 
L 175.904941 172.604744 
L 176.243152 171.585589 
L 176.581363 172.604744 
L 176.919574 174.568765 
L 177.257785 174.568765 
L 177.595996 175.515972 
L 178.272418 180.774017 
L 178.94884 180.774017 
L 179.287051 178.230784 
L 179.625262 181.587266 
L 179.963473 183.166074 
L 180.301684 182.38441 
L 180.639894 180.774017 
L 180.978105 179.943999 
L 181.316316 176.441403 
L 181.654527 178.230784 
L 181.992738 177.346036 
L 182.330949 179.096505 
L 182.66916 178.230784 
L 183.007371 179.096505 
L 183.345582 178.230784 
L 183.683793 179.096505 
L 184.360215 169.466444 
L 184.698426 168.363513 
L 185.713059 161.024258 
L 186.051269 161.024258 
L 186.38948 162.344195 
L 186.727691 162.344195 
L 187.065902 163.622221 
L 187.404113 161.024258 
L 187.742324 156.783028 
L 188.080535 158.246988 
L 188.418746 155.263812 
L 188.756957 153.685003 
L 189.095168 150.328522 
L 189.433379 150.328522 
L 189.77159 153.685003 
L 190.109801 153.685003 
L 190.448012 150.328522 
L 190.786223 153.685003 
L 191.124434 153.685003 
L 191.800855 159.65957 
L 192.815488 155.263812 
L 193.153699 152.041736 
L 193.49191 153.685003 
L 193.830121 150.328522 
L 194.844754 150.328522 
L 195.182965 144.702481 
L 195.521176 144.702481 
L 195.859387 146.666503 
L 196.197598 150.328522 
L 196.874019 150.328522 
L 197.21223 153.685003 
L 197.550441 153.685003 
L 197.888652 155.263812 
L 198.226863 155.263812 
L 198.565074 148.53914 
L 199.579707 153.685003 
L 199.917918 148.53914 
L 200.256129 150.328522 
L 200.59434 144.702481 
L 200.932551 142.637697 
L 201.270762 144.702481 
L 201.608973 144.702481 
L 201.947184 135.719959 
L 202.623605 140.461251 
L 202.961816 138.16037 
L 203.300027 138.16037 
L 203.638238 127.361549 
L 203.976449 135.719959 
L 204.31466 135.719959 
L 204.652871 130.344725 
L 204.991082 135.719959 
L 205.329293 133.121996 
L 205.667504 124.139474 
L 206.005715 120.636878 
L 206.343926 112.558988 
L 206.682137 124.139474 
L 207.020348 116.800219 
L 207.358559 112.558988 
L 207.696769 116.800219 
L 208.03498 116.800219 
L 208.373191 120.636878 
L 208.711402 120.636878 
L 209.049613 124.139474 
L 209.726035 124.139474 
L 210.064246 133.121996 
L 210.402457 127.361549 
L 211.078879 120.636878 
L 211.41709 130.344725 
L 211.755301 133.121996 
L 212.093512 127.361549 
L 212.431723 116.800219 
L 212.769934 116.800219 
L 213.108145 102.442463 
L 213.784566 102.442463 
L 214.122777 96.237211 
L 214.460988 79.915434 
L 214.799199 88.897956 
L 215.13741 107.817696 
L 215.475621 107.817696 
L 215.813832 102.442463 
L 216.152043 107.817696 
L 216.490254 102.442463 
L 216.828465 79.915434 
L 217.166676 79.915434 
L 217.504887 68.334949 
L 217.843098 102.442463 
L 218.181309 88.897956 
L 218.51952 79.915434 
L 218.85773 102.442463 
L 219.195941 107.817696 
L 219.534152 107.817696 
L 220.210574 96.237211 
L 220.886996 96.237211 
L 221.225207 68.334949 
L 221.901629 68.334949 
L 222.23984 52.013172 
L 222.578051 96.237211 
L 222.916262 96.237211 
L 223.254473 52.013172 
L 223.592684 79.915434 
L 224.269105 24.110909 
M 238.135754 79.915434 
L 238.473965 112.558988 
L 238.812176 112.558988 
L 239.150387 68.334949 
M 262.825152 52.013172 
L 263.501574 52.013172 
L 263.839785 88.897956 
L 264.177996 107.817696 
L 264.516207 96.237211 
L 264.854418 112.558988 
L 265.192629 120.636878 
L 265.53084 116.800219 
L 265.869051 116.800219 
L 266.207262 124.139474 
L 266.545473 116.800219 
L 266.883684 124.139474 
L 267.221895 120.636878 
L 267.560106 107.817696 
L 267.898316 107.817696 
L 268.236527 102.442463 
L 268.912949 102.442463 
L 269.25116 88.897956 
L 269.589371 88.897956 
L 269.927582 68.334949 
L 270.265793 88.897956 
L 270.942215 68.334949 
L 271.280426 79.915434 
L 271.618637 68.334949 
L 271.956848 52.013172 
L 272.295059 79.915434 
L 272.63327 52.013172 
L 272.971481 68.334949 
L 273.309692 68.334949 
L 273.647902 96.237211 
L 273.986113 68.334949 
L 274.324324 79.915434 
L 274.662535 107.817696 
L 275.000746 96.237211 
L 275.338957 96.237211 
L 275.677168 79.915434 
L 276.015379 88.897956 
L 277.030012 24.110909 
M 320.997434 79.915434 
L 321.673856 96.237211 
L 322.012067 102.442463 
L 322.350278 79.915434 
L 322.688488 79.915434 
L 323.026699 88.897956 
L 323.36491 24.110909 
L 323.703121 79.915434 
L 324.041332 107.817696 
L 324.379543 124.139474 
L 324.717754 124.139474 
L 325.394176 116.800219 
L 325.732387 127.361549 
L 326.070598 133.121996 
L 326.408809 127.361549 
L 327.085231 133.121996 
L 327.423442 142.637697 
L 327.761653 138.16037 
L 328.099863 135.719959 
L 328.776285 135.719959 
L 329.114496 140.461251 
L 329.452707 140.461251 
L 329.790918 135.719959 
L 330.129129 138.16037 
L 330.46734 135.719959 
L 330.805551 135.719959 
L 331.143762 138.16037 
L 331.481973 138.16037 
L 332.496606 130.344725 
L 332.834817 120.636878 
L 333.173028 133.121996 
L 334.18766 148.53914 
L 334.525871 146.666503 
L 334.864082 148.53914 
L 335.202293 146.666503 
L 335.540504 148.53914 
L 335.878715 153.685003 
L 336.216926 153.685003 
L 337.56977 159.65957 
L 337.907981 153.685003 
L 338.246192 153.685003 
L 338.922614 144.702481 
L 339.260824 142.637697 
L 339.599035 142.637697 
L 339.937246 138.16037 
L 340.275457 127.361549 
L 340.613668 124.139474 
L 340.951879 124.139474 
L 341.29009 107.817696 
L 341.628301 112.558988 
L 341.966512 107.817696 
L 342.304723 107.817696 
L 342.642934 96.237211 
L 342.981145 102.442463 
L 343.319356 102.442463 
L 343.657567 124.139474 
L 343.995778 127.361549 
L 344.333989 116.800219 
L 345.01041 107.817696 
L 345.686832 96.237211 
L 346.025043 79.915434 
L 346.363254 79.915434 
L 346.701465 68.334949 
L 347.039676 52.013172 
L 347.377887 68.334949 
M 348.39252 68.334949 
L 348.730731 24.110909 
M 349.407153 24.110909 
L 349.745364 52.013172 
M 350.421785 79.915434 
L 351.098207 79.915434 
L 351.436418 68.334949 
L 351.774629 68.334949 
L 352.11284 52.013172 
L 352.451051 24.110909 
L 352.789262 52.013172 
L 353.127473 96.237211 
L 353.465684 88.897956 
L 353.803895 88.897956 
L 354.142106 107.817696 
L 354.480317 112.558988 
L 354.818528 79.915434 
L 355.156739 88.897956 
L 355.494949 102.442463 
L 356.171371 88.897956 
L 356.509582 96.237211 
L 356.847793 107.817696 
L 357.186004 96.237211 
L 357.524215 96.237211 
L 358.200637 79.915434 
L 358.538848 79.915434 
L 358.877059 68.334949 
L 359.21527 79.915434 
L 359.553481 79.915434 
M 360.229903 52.013172 
L 361.244535 96.237211 
L 361.582746 24.110909 
M 362.259168 24.110909 
L 362.597379 52.013172 
L 362.93559 52.013172 
L 363.273801 68.334949 
L 363.950223 68.334949 
L 364.288434 79.915434 
L 364.626645 68.334949 
L 364.964856 52.013172 
L 365.303067 24.110909 
L 365.641278 68.334949 
L 365.979489 88.897956 
L 366.3177 68.334949 
L 366.994121 88.897956 
L 367.332332 79.915434 
L 367.670543 24.110909 
L 367.670543 24.110909 
" clip-path="url(#p56d7b7e45e)" style="fill: none; stroke: #d62728; stroke-width: 1.5; stroke-linecap: square"/>
   </g>
   <g id="patch_3">
    <path d="M 38.27 303.64 
L 38.27 10.8 
" style="fill: none; stroke: #000000; stroke-width: 0.8; stroke-linejoin: miter; stroke-linecap: square"/>
   </g>
   <g id="patch_4">
    <path d="M 409.93 303.64 
L 409.93 10.8 
" style="fill: none; stroke: #000000; stroke-width: 0.8; stroke-linejoin: miter; stroke-linecap: square"/>
   </g>
   <g id="patch_5">
    <path d="M 38.27 303.64 
L 409.93 303.64 
" style="fill: none; stroke: #000000; stroke-width: 0.8; stroke-linejoin: miter; stroke-linecap: square"/>
   </g>
   <g id="patch_6">
    <path d="M 38.27 10.8 
L 409.93 10.8 
" style="fill: none; stroke: #000000; stroke-width: 0.8; stroke-linejoin: miter; stroke-linecap: square"/>
   </g>
  </g>
  <g id="axes_2">
   <g id="matplotlib.axis_3">
    <g id="ytick_7">
     <g id="line2d_14">
      <defs>
       <path id="m0e4809b87a" d="M 0 0 
L 3.5 0 
" style="stroke: #000000; stroke-width: 0.8"/>
      </defs>
      <g>
       <use xlink:href="#m0e4809b87a" x="409.93" y="292.051071" style="stroke: #000000; stroke-width: 0.8"/>
      </g>
     </g>
     <g id="text_15">
      <!-- 0 -->
      <g style="fill: #1f77b4" transform="translate(416.93 295.85029) scale(0.1 -0.1)">
       <use xlink:href="#DejaVuSans-30"/>
      </g>
     </g>
    </g>
    <g id="ytick_8">
     <g id="line2d_15">
      <g>
       <use xlink:href="#m0e4809b87a" x="409.93" y="257.611462" style="stroke: #000000; stroke-width: 0.8"/>
      </g>
     </g>
     <g id="text_16">
      <!-- 100 -->
      <g style="fill: #1f77b4" transform="translate(416.93 261.410681) scale(0.1 -0.1)">
       <use xlink:href="#DejaVuSans-31"/>
       <use xlink:href="#DejaVuSans-30" x="63.623047"/>
       <use xlink:href="#DejaVuSans-30" x="127.246094"/>
      </g>
     </g>
    </g>
    <g id="ytick_9">
     <g id="line2d_16">
      <g>
       <use xlink:href="#m0e4809b87a" x="409.93" y="223.171852" style="stroke: #000000; stroke-width: 0.8"/>
      </g>
     </g>
     <g id="text_17">
      <!-- 200 -->
      <g style="fill: #1f77b4" transform="translate(416.93 226.971071) scale(0.1 -0.1)">
       <use xlink:href="#DejaVuSans-32"/>
       <use xlink:href="#DejaVuSans-30" x="63.623047"/>
       <use xlink:href="#DejaVuSans-30" x="127.246094"/>
      </g>
     </g>
    </g>
    <g id="ytick_10">
     <g id="line2d_17">
      <g>
       <use xlink:href="#m0e4809b87a" x="409.93" y="188.732243" style="stroke: #000000; stroke-width: 0.8"/>
      </g>
     </g>
     <g id="text_18">
      <!-- 300 -->
      <g style="fill: #1f77b4" transform="translate(416.93 192.531461) scale(0.1 -0.1)">
       <use xlink:href="#DejaVuSans-33"/>
       <use xlink:href="#DejaVuSans-30" x="63.623047"/>
       <use xlink:href="#DejaVuSans-30" x="127.246094"/>
      </g>
     </g>
    </g>
    <g id="ytick_11">
     <g id="line2d_18">
      <g>
       <use xlink:href="#m0e4809b87a" x="409.93" y="154.292633" style="stroke: #000000; stroke-width: 0.8"/>
      </g>
     </g>
     <g id="text_19">
      <!-- 400 -->
      <g style="fill: #1f77b4" transform="translate(416.93 158.091852) scale(0.1 -0.1)">
       <use xlink:href="#DejaVuSans-34"/>
       <use xlink:href="#DejaVuSans-30" x="63.623047"/>
       <use xlink:href="#DejaVuSans-30" x="127.246094"/>
      </g>
     </g>
    </g>
    <g id="ytick_12">
     <g id="line2d_19">
      <g>
       <use xlink:href="#m0e4809b87a" x="409.93" y="119.853024" style="stroke: #000000; stroke-width: 0.8"/>
      </g>
     </g>
     <g id="text_20">
      <!-- 500 -->
      <g style="fill: #1f77b4" transform="translate(416.93 123.652242) scale(0.1 -0.1)">
       <use xlink:href="#DejaVuSans-35"/>
       <use xlink:href="#DejaVuSans-30" x="63.623047"/>
       <use xlink:href="#DejaVuSans-30" x="127.246094"/>
      </g>
     </g>
    </g>
    <g id="ytick_13">
     <g id="line2d_20">
      <g>
       <use xlink:href="#m0e4809b87a" x="409.93" y="85.413414" style="stroke: #000000; stroke-width: 0.8"/>
      </g>
     </g>
     <g id="text_21">
      <!-- 600 -->
      <g style="fill: #1f77b4" transform="translate(416.93 89.212633) scale(0.1 -0.1)">
       <use xlink:href="#DejaVuSans-36"/>
       <use xlink:href="#DejaVuSans-30" x="63.623047"/>
       <use xlink:href="#DejaVuSans-30" x="127.246094"/>
      </g>
     </g>
    </g>
    <g id="ytick_14">
     <g id="line2d_21">
      <g>
       <use xlink:href="#m0e4809b87a" x="409.93" y="50.973805" style="stroke: #000000; stroke-width: 0.8"/>
      </g>
     </g>
     <g id="text_22">
      <!-- 700 -->
      <g style="fill: #1f77b4" transform="translate(416.93 54.773023) scale(0.1 -0.1)">
       <defs>
        <path id="DejaVuSans-37" d="M 525 4666 
L 3525 4666 
L 3525 4397 
L 1831 0 
L 1172 0 
L 2766 4134 
L 525 4134 
L 525 4666 
z
" transform="scale(0.015625)"/>
       </defs>
       <use xlink:href="#DejaVuSans-37"/>
       <use xlink:href="#DejaVuSans-30" x="63.623047"/>
       <use xlink:href="#DejaVuSans-30" x="127.246094"/>
      </g>
     </g>
    </g>
    <g id="ytick_15">
     <g id="line2d_22">
      <g>
       <use xlink:href="#m0e4809b87a" x="409.93" y="16.534195" style="stroke: #000000; stroke-width: 0.8"/>
      </g>
     </g>
     <g id="text_23">
      <!-- 800 -->
      <g style="fill: #1f77b4" transform="translate(416.93 20.333414) scale(0.1 -0.1)">
       <use xlink:href="#DejaVuSans-38"/>
       <use xlink:href="#DejaVuSans-30" x="63.623047"/>
       <use xlink:href="#DejaVuSans-30" x="127.246094"/>
      </g>
     </g>
    </g>
    <g id="text_24">
     <!-- Simple distance -->
     <g style="fill: #1f77b4" transform="translate(447.615938 197.069219) rotate(-90) scale(0.1 -0.1)">
      <defs>
       <path id="DejaVuSans-53" d="M 3425 4513 
L 3425 3897 
Q 3066 4069 2747 4153 
Q 2428 4238 2131 4238 
Q 1616 4238 1336 4038 
Q 1056 3838 1056 3469 
Q 1056 3159 1242 3001 
Q 1428 2844 1947 2747 
L 2328 2669 
Q 3034 2534 3370 2195 
Q 3706 1856 3706 1288 
Q 3706 609 3251 259 
Q 2797 -91 1919 -91 
Q 1588 -91 1214 -16 
Q 841 59 441 206 
L 441 856 
Q 825 641 1194 531 
Q 1563 422 1919 422 
Q 2459 422 2753 634 
Q 3047 847 3047 1241 
Q 3047 1584 2836 1778 
Q 2625 1972 2144 2069 
L 1759 2144 
Q 1053 2284 737 2584 
Q 422 2884 422 3419 
Q 422 4038 858 4394 
Q 1294 4750 2059 4750 
Q 2388 4750 2728 4690 
Q 3069 4631 3425 4513 
z
" transform="scale(0.015625)"/>
       <path id="DejaVuSans-6d" d="M 3328 2828 
Q 3544 3216 3844 3400 
Q 4144 3584 4550 3584 
Q 5097 3584 5394 3201 
Q 5691 2819 5691 2113 
L 5691 0 
L 5113 0 
L 5113 2094 
Q 5113 2597 4934 2840 
Q 4756 3084 4391 3084 
Q 3944 3084 3684 2787 
Q 3425 2491 3425 1978 
L 3425 0 
L 2847 0 
L 2847 2094 
Q 2847 2600 2669 2842 
Q 2491 3084 2119 3084 
Q 1678 3084 1418 2786 
Q 1159 2488 1159 1978 
L 1159 0 
L 581 0 
L 581 3500 
L 1159 3500 
L 1159 2956 
Q 1356 3278 1631 3431 
Q 1906 3584 2284 3584 
Q 2666 3584 2933 3390 
Q 3200 3197 3328 2828 
z
" transform="scale(0.015625)"/>
      </defs>
      <use xlink:href="#DejaVuSans-53"/>
      <use xlink:href="#DejaVuSans-69" x="63.476562"/>
      <use xlink:href="#DejaVuSans-6d" x="91.259766"/>
      <use xlink:href="#DejaVuSans-70" x="188.671875"/>
      <use xlink:href="#DejaVuSans-6c" x="252.148438"/>
      <use xlink:href="#DejaVuSans-65" x="279.931641"/>
      <use xlink:href="#DejaVuSans-20" x="341.455078"/>
      <use xlink:href="#DejaVuSans-64" x="373.242188"/>
      <use xlink:href="#DejaVuSans-69" x="436.71875"/>
      <use xlink:href="#DejaVuSans-73" x="464.501953"/>
      <use xlink:href="#DejaVuSans-74" x="516.601562"/>
      <use xlink:href="#DejaVuSans-61" x="555.810547"/>
      <use xlink:href="#DejaVuSans-6e" x="617.089844"/>
      <use xlink:href="#DejaVuSans-63" x="680.46875"/>
      <use xlink:href="#DejaVuSans-65" x="735.449219"/>
     </g>
    </g>
   </g>
   <g id="line2d_23">
    <path d="M 55.163636 290.329091 
L 55.840058 285.163149 
L 56.178269 281.719189 
L 56.51648 279.652812 
L 56.854691 275.175663 
L 58.207535 264.499384 
L 58.545746 263.121799 
L 58.883957 262.433007 
L 59.222168 259.677838 
L 59.898589 256.578274 
L 60.2368 255.200689 
L 60.575011 252.101124 
L 61.589644 245.901995 
L 61.927855 242.113638 
L 62.266066 241.769241 
L 62.604277 240.391657 
L 63.280699 235.914508 
L 63.61891 231.781755 
L 63.957121 230.059774 
L 64.295332 229.370982 
L 64.633543 227.304605 
L 64.971754 225.927021 
L 65.309965 222.138664 
L 65.648175 220.072287 
L 65.986386 219.039099 
L 66.324597 216.28393 
L 66.662808 214.56195 
L 67.001019 211.462385 
L 68.015652 208.018424 
L 68.692074 204.574463 
L 69.030285 202.16369 
L 69.368496 200.786106 
L 70.044918 196.997749 
L 70.383129 195.275769 
L 71.05955 193.209392 
L 71.397761 193.209392 
L 72.412394 184.943886 
L 72.750605 183.566301 
L 73.088816 181.499925 
L 73.765238 178.744756 
L 74.103449 179.433548 
L 74.44166 178.744756 
L 74.779871 177.711568 
L 75.118082 177.367172 
L 75.456293 176.678379 
L 75.794504 173.923211 
L 76.132715 172.890022 
L 76.470925 170.134854 
L 76.809136 171.168042 
L 77.147347 170.47925 
L 77.485558 168.757269 
L 77.823769 169.446061 
L 78.16198 169.446061 
L 78.500191 169.101665 
L 78.838402 168.412873 
L 79.176613 167.379685 
L 79.514824 165.313308 
L 79.853035 164.624516 
L 80.529457 162.213743 
L 81.205879 158.425386 
L 81.54409 156.014614 
L 81.8823 155.670218 
L 82.220511 154.292633 
L 82.558722 153.948237 
L 82.896933 154.981425 
L 83.235144 154.292633 
L 84.249777 150.848672 
L 84.587988 148.782296 
L 84.926199 147.404711 
L 85.26441 147.404711 
L 85.602621 144.649543 
L 85.940832 143.271958 
L 86.279043 141.205582 
L 86.617254 141.205582 
L 87.293675 139.827997 
L 87.970097 139.827997 
L 88.308308 139.483601 
L 88.646519 138.794809 
L 88.98473 138.450413 
L 89.322941 137.761621 
L 89.661152 136.03964 
L 89.999363 136.384036 
L 90.337574 136.03964 
L 90.675785 136.03964 
L 91.352207 133.628867 
L 91.690418 134.31766 
L 92.028629 132.940075 
L 92.36684 132.595679 
L 92.705051 133.284471 
L 93.043261 133.284471 
L 93.381472 133.628867 
L 93.719683 131.906887 
L 94.057894 131.218095 
L 94.396105 130.873699 
L 94.734316 131.218095 
L 95.072527 129.496114 
L 95.410738 128.807322 
L 96.08716 126.396549 
L 96.425371 123.985777 
L 96.763582 122.952588 
L 97.101793 122.608192 
L 97.440004 121.575004 
L 97.778215 122.263796 
L 98.116426 121.9194 
L 98.454636 120.541816 
L 99.131058 119.164231 
L 99.469269 117.097855 
L 99.80748 116.753459 
L 100.483902 115.375874 
L 100.822113 115.031478 
L 101.160324 113.309498 
L 101.498535 112.27631 
L 101.836746 109.865537 
L 102.174957 109.521141 
L 102.513168 108.832349 
L 102.851379 107.110368 
L 103.18959 107.454764 
L 103.866011 105.388388 
L 104.204222 106.07718 
L 104.880644 104.355199 
L 105.218855 104.010803 
L 105.557066 104.355199 
L 105.895277 104.355199 
L 106.233488 104.010803 
L 106.571699 102.633219 
L 106.90991 101.944427 
L 107.924543 99.189258 
L 108.262754 99.189258 
L 108.600965 98.844862 
L 108.939176 99.533654 
L 109.277386 97.811674 
L 109.615597 97.811674 
L 109.953808 96.434089 
L 110.292019 96.434089 
L 110.63023 94.367713 
L 110.968441 92.990128 
L 111.306652 93.334524 
L 111.644863 92.301336 
L 111.983074 90.234959 
L 112.321285 89.546167 
L 112.659496 89.546167 
L 112.997707 90.234959 
L 113.335918 89.546167 
L 113.674129 90.234959 
L 114.01234 91.612544 
L 114.350551 91.95694 
L 114.688761 92.645732 
L 115.026972 91.95694 
L 115.365183 89.890563 
L 115.703394 88.512979 
L 116.041605 88.168583 
L 116.379816 87.479791 
L 116.718027 87.824187 
L 117.394449 86.102206 
L 117.73266 85.75781 
L 118.070871 84.380226 
L 118.409082 83.691434 
L 118.747293 83.691434 
L 119.085504 82.658245 
L 119.423715 83.002641 
L 119.761926 81.280661 
L 120.100137 81.625057 
L 120.438347 80.936265 
L 120.776558 81.280661 
L 121.114769 81.280661 
L 121.45298 80.591869 
L 121.791191 79.55868 
L 122.467613 80.247473 
L 122.805824 77.8367 
L 123.144035 77.492304 
L 123.820457 75.081531 
L 124.158668 75.081531 
L 124.496879 76.11472 
L 125.173301 74.392739 
L 125.511512 74.048343 
L 125.849722 72.670759 
L 126.187933 71.981966 
L 126.526144 72.326362 
L 126.864355 73.015155 
L 127.202566 73.015155 
L 127.540777 71.981966 
L 127.878988 72.670759 
L 128.217199 71.293174 
L 128.55541 70.948778 
L 129.231832 69.571194 
L 129.570043 69.91559 
L 129.908254 69.571194 
L 130.246465 70.604382 
L 130.584676 69.91559 
L 130.922887 69.91559 
L 131.261097 69.571194 
L 131.599308 68.538005 
L 131.937519 68.882402 
L 132.27573 68.538005 
L 132.613941 67.160421 
L 132.952152 67.160421 
L 133.290363 66.471629 
L 133.628574 67.160421 
L 133.966785 67.160421 
L 134.304996 66.816025 
L 134.643207 66.816025 
L 134.981418 67.160421 
L 135.319629 67.849213 
L 135.65784 66.471629 
L 135.996051 66.127233 
L 136.334262 65.438441 
L 136.672472 63.71646 
L 137.687105 60.272499 
L 138.025316 60.272499 
L 138.701738 58.550519 
L 139.039949 57.861726 
L 140.054582 58.894915 
L 140.392793 58.894915 
L 140.731004 58.550519 
L 141.407426 56.828538 
L 141.745637 56.484142 
L 142.422058 57.172934 
L 142.760269 57.172934 
L 143.09848 57.51733 
L 143.436691 57.51733 
L 143.774902 57.861726 
L 144.113113 57.51733 
L 145.127746 54.762162 
L 145.465957 54.762162 
L 145.804168 56.484142 
L 146.48059 55.106558 
L 146.818801 55.106558 
L 147.157012 55.450954 
L 147.495222 55.106558 
L 147.833433 55.106558 
L 148.171644 54.762162 
L 148.509855 54.073369 
L 148.848066 53.728973 
L 149.186277 53.040181 
L 150.20091 50.285012 
L 150.877332 52.006993 
L 151.215543 52.351389 
L 151.891965 54.073369 
L 152.230176 53.384577 
L 152.568387 52.351389 
L 152.906598 52.351389 
L 153.244808 52.006993 
L 153.583019 52.006993 
L 153.92123 52.351389 
L 154.259441 52.351389 
L 154.597652 53.384577 
L 154.935863 53.728973 
L 155.274074 52.695785 
L 155.612285 53.384577 
L 155.950496 54.417765 
L 156.288707 54.073369 
L 156.626918 54.417765 
L 157.641551 57.172934 
L 157.979762 57.861726 
L 158.317973 57.51733 
L 158.656183 57.861726 
L 159.332605 56.484142 
L 159.670816 56.139746 
L 160.009027 54.762162 
L 160.347238 54.073369 
L 160.685449 54.073369 
L 161.02366 53.728973 
L 161.361871 54.762162 
L 161.700082 52.695785 
L 162.038293 53.040181 
L 162.376504 52.351389 
L 162.714715 53.040181 
L 163.052926 53.384577 
L 163.391137 52.695785 
L 164.405769 51.662597 
L 164.74398 50.629408 
L 165.420402 50.629408 
L 165.758613 52.006993 
L 166.096824 52.351389 
L 166.435035 51.662597 
L 166.773246 50.629408 
L 167.111457 50.973805 
L 167.449668 51.662597 
L 167.787879 50.973805 
L 168.12609 50.973805 
L 168.464301 51.662597 
L 169.140723 49.940616 
L 169.478933 50.285012 
L 169.817144 49.251824 
L 170.155355 49.59622 
L 170.493566 49.251824 
L 170.831777 48.563032 
L 171.169988 48.218636 
L 171.508199 49.59622 
L 171.84641 49.251824 
L 172.184621 49.940616 
L 172.522832 49.940616 
L 172.861043 50.285012 
L 173.199254 50.285012 
L 173.875676 48.907428 
L 174.213887 48.563032 
L 174.552098 48.907428 
L 174.890308 48.218636 
L 175.56673 48.218636 
L 175.904941 47.529844 
L 176.243152 47.185447 
L 176.581363 47.529844 
L 176.919574 48.218636 
L 177.257785 48.218636 
L 177.595996 48.563032 
L 178.272418 50.629408 
L 178.94884 50.629408 
L 179.287051 49.59622 
L 179.625262 50.973805 
L 179.963473 51.662597 
L 180.301684 51.318201 
L 180.639894 50.629408 
L 180.978105 50.285012 
L 181.316316 48.907428 
L 181.654527 49.59622 
L 181.992738 49.251824 
L 182.330949 49.940616 
L 182.66916 49.59622 
L 183.007371 49.940616 
L 183.345582 49.59622 
L 183.683793 49.940616 
L 184.360215 46.496655 
L 184.698426 46.152259 
L 185.713059 44.085883 
L 186.051269 44.085883 
L 186.38948 44.430279 
L 186.727691 44.430279 
L 187.065902 44.774675 
L 187.404113 44.085883 
L 187.742324 43.052694 
L 188.080535 43.39709 
L 188.418746 42.708298 
L 188.756957 42.363902 
L 189.095168 41.67511 
L 189.433379 41.67511 
L 189.77159 42.363902 
L 190.109801 42.363902 
L 190.448012 41.67511 
L 190.786223 42.363902 
L 191.124434 42.363902 
L 191.800855 43.741487 
L 192.815488 42.708298 
L 193.153699 42.019506 
L 193.49191 42.363902 
L 193.830121 41.67511 
L 194.844754 41.67511 
L 195.182965 40.641922 
L 195.521176 40.641922 
L 195.859387 40.986318 
L 196.197598 41.67511 
L 196.874019 41.67511 
L 197.21223 42.363902 
L 197.550441 42.363902 
L 197.888652 42.708298 
L 198.226863 42.708298 
L 198.565074 41.330714 
L 199.579707 42.363902 
L 199.917918 41.330714 
L 200.256129 41.67511 
L 200.59434 40.641922 
L 200.932551 40.297526 
L 201.270762 40.641922 
L 201.608973 40.641922 
L 201.947184 39.264337 
L 202.623605 39.953129 
L 202.961816 39.608733 
L 203.300027 39.608733 
L 203.638238 38.231149 
L 203.976449 39.264337 
L 204.31466 39.264337 
L 204.652871 38.575545 
L 204.991082 39.264337 
L 205.329293 38.919941 
L 205.667504 37.886753 
L 206.005715 37.542357 
L 206.343926 36.853565 
L 206.682137 37.886753 
L 207.020348 37.197961 
L 207.358559 36.853565 
L 207.696769 37.197961 
L 208.03498 37.197961 
L 208.373191 37.542357 
L 208.711402 37.542357 
L 209.049613 37.886753 
L 209.726035 37.886753 
L 210.064246 38.919941 
L 210.402457 38.231149 
L 211.078879 37.542357 
L 211.41709 38.575545 
L 211.755301 38.919941 
L 212.093512 38.231149 
L 212.431723 37.197961 
L 212.769934 37.197961 
L 213.108145 36.164772 
L 213.784566 36.164772 
L 214.122777 35.820376 
L 214.460988 35.131584 
L 214.799199 35.47598 
L 215.13741 36.509169 
L 215.475621 36.509169 
L 215.813832 36.164772 
L 216.152043 36.509169 
L 216.490254 36.164772 
L 216.828465 35.131584 
L 217.166676 35.131584 
L 217.504887 34.787188 
L 217.843098 36.164772 
L 218.181309 35.47598 
L 218.51952 35.131584 
L 218.85773 36.164772 
L 219.195941 36.509169 
L 219.534152 36.509169 
L 220.210574 35.820376 
L 220.886996 35.820376 
L 221.225207 34.787188 
L 221.901629 34.787188 
L 222.23984 34.442792 
L 222.578051 35.820376 
L 222.916262 35.820376 
L 223.254473 34.442792 
L 223.592684 35.131584 
L 223.930895 34.442792 
L 224.269105 34.098396 
L 224.945527 32.720811 
L 225.283738 32.720811 
L 225.621949 32.376415 
L 225.96016 32.376415 
L 226.298371 32.720811 
L 226.636582 32.376415 
L 226.974793 30.998831 
L 227.313004 30.998831 
L 227.651215 30.310039 
L 227.989426 30.310039 
L 228.327637 29.621247 
L 228.665848 31.343227 
L 229.004059 31.343227 
L 229.34227 32.376415 
L 229.68048 32.376415 
L 230.018691 32.720811 
L 230.356902 32.376415 
L 231.033324 32.376415 
L 231.371535 30.654435 
L 232.047957 32.376415 
L 232.386168 32.032019 
L 232.724379 32.376415 
L 233.400801 30.998831 
L 233.739012 30.654435 
L 234.077223 30.998831 
L 234.415434 30.998831 
L 234.753645 29.965643 
L 235.091855 29.621247 
L 236.106488 29.621247 
L 236.78291 30.310039 
L 237.797543 33.065208 
L 238.473965 36.853565 
L 238.812176 36.853565 
L 239.150387 34.787188 
L 239.826809 32.720811 
L 240.503231 32.032019 
L 240.841441 32.032019 
L 241.179652 31.687623 
L 241.517863 31.687623 
L 241.856074 30.310039 
L 242.194285 29.965643 
L 243.208918 27.899266 
L 243.547129 28.588058 
L 243.88534 28.588058 
L 244.223551 28.243662 
L 244.561762 28.588058 
L 245.576395 30.654435 
L 245.914606 29.965643 
L 246.252816 29.621247 
L 246.591027 29.621247 
L 246.929238 29.965643 
L 247.267449 29.276851 
L 247.60566 30.310039 
L 247.943871 30.654435 
L 248.282082 30.654435 
L 248.620293 30.310039 
L 248.958504 32.032019 
L 249.973137 30.998831 
L 250.311348 29.965643 
L 250.649559 29.965643 
L 250.98777 29.621247 
L 251.325981 30.654435 
L 251.664191 30.998831 
L 252.002402 30.654435 
L 252.678824 31.343227 
L 253.017035 30.654435 
L 253.355246 30.998831 
L 254.031668 32.720811 
L 254.70809 31.343227 
L 255.046301 32.376415 
L 255.384512 32.720811 
L 255.722723 32.720811 
L 256.060934 32.032019 
L 256.399145 32.720811 
L 256.737356 32.376415 
L 257.075566 32.720811 
L 257.413777 32.032019 
L 257.751988 32.032019 
L 258.090199 30.654435 
L 258.766621 32.032019 
L 259.104832 32.032019 
L 260.119465 33.065208 
L 260.457676 33.754 
L 260.795887 33.754 
L 261.472309 32.376415 
L 261.81052 32.720811 
L 262.148731 32.720811 
L 262.825152 34.442792 
L 263.501574 34.442792 
L 264.177996 36.509169 
L 264.516207 35.820376 
L 265.192629 37.542357 
L 265.53084 37.197961 
L 265.869051 37.197961 
L 266.207262 37.886753 
L 266.545473 37.197961 
L 266.883684 37.886753 
L 267.221895 37.542357 
L 267.560106 36.509169 
L 267.898316 36.509169 
L 268.236527 36.164772 
L 268.912949 36.164772 
L 269.25116 35.47598 
L 269.589371 35.47598 
L 269.927582 34.787188 
L 270.265793 35.47598 
L 270.942215 34.787188 
L 271.280426 35.131584 
L 271.956848 34.442792 
L 272.295059 35.131584 
L 272.63327 34.442792 
L 272.971481 34.787188 
L 273.309692 34.787188 
L 273.647902 35.820376 
L 273.986113 34.787188 
L 274.324324 35.131584 
L 274.662535 36.509169 
L 275.000746 35.820376 
L 275.338957 35.820376 
L 275.677168 35.131584 
L 276.015379 35.47598 
L 276.35359 34.787188 
L 277.030012 34.098396 
L 277.706434 32.720811 
L 278.044645 31.343227 
L 278.382856 31.343227 
L 278.721067 30.310039 
L 279.059277 30.998831 
L 279.397488 30.998831 
L 280.07391 31.687623 
L 280.412121 31.687623 
L 280.750332 32.720811 
L 281.088543 32.720811 
L 281.426754 33.409604 
L 281.764965 33.065208 
L 282.103176 33.409604 
L 282.779598 32.032019 
L 283.117809 30.998831 
L 283.45602 30.998831 
L 283.794231 31.343227 
L 284.132442 32.032019 
L 284.470652 32.376415 
L 284.808863 33.065208 
L 285.147074 32.720811 
L 285.485285 31.687623 
L 285.823496 31.343227 
L 286.161707 32.376415 
L 286.499918 32.376415 
L 287.17634 33.065208 
L 287.514551 32.720811 
L 287.852762 32.720811 
L 288.529184 30.998831 
L 288.867395 30.310039 
L 289.543817 32.376415 
L 289.882027 32.032019 
L 290.220238 32.376415 
L 290.89666 33.754 
L 291.234871 33.409604 
L 291.573082 32.720811 
L 291.911293 33.065208 
L 292.249504 32.376415 
L 292.587715 32.376415 
L 292.925926 31.343227 
L 293.264137 31.343227 
L 293.602348 30.998831 
L 293.940559 32.032019 
L 294.27877 30.654435 
L 294.955192 30.654435 
L 295.293402 31.343227 
L 295.631613 30.998831 
L 296.308035 30.998831 
L 296.646246 31.343227 
L 296.984457 30.998831 
L 297.322668 31.343227 
L 297.660879 30.654435 
L 297.99909 30.310039 
L 299.351934 31.687623 
L 299.690145 31.343227 
L 300.366567 32.032019 
L 300.704778 31.687623 
L 301.042988 32.376415 
L 301.381199 32.720811 
L 301.71941 31.687623 
L 302.395832 30.998831 
L 302.734043 30.998831 
L 303.072254 30.654435 
L 303.410465 30.654435 
L 303.748676 28.588058 
L 304.086887 29.276851 
L 304.425098 27.55487 
L 304.763309 27.55487 
L 305.10152 29.276851 
L 305.439731 29.276851 
L 305.777942 28.588058 
L 306.454363 26.866078 
L 306.792574 26.177286 
L 307.468996 25.488493 
L 308.145418 24.110909 
L 308.82184 25.83289 
L 310.174684 27.210474 
L 310.512895 29.276851 
L 310.851106 29.965643 
L 311.189317 31.343227 
L 311.527528 30.998831 
L 311.865738 31.687623 
L 312.203949 31.687623 
L 312.54216 30.998831 
L 312.880371 31.687623 
L 313.218582 31.343227 
L 313.556793 32.032019 
L 313.895004 31.343227 
L 314.233215 32.376415 
L 314.909637 32.376415 
L 315.247848 32.720811 
L 315.586059 32.720811 
L 315.92427 32.032019 
L 316.262481 33.065208 
L 316.600692 32.720811 
L 316.938903 31.343227 
L 317.277113 31.343227 
L 317.615324 32.720811 
L 317.953535 32.032019 
L 318.291746 32.032019 
L 318.629957 30.998831 
L 318.968168 30.998831 
L 319.306379 30.654435 
L 319.64459 31.687623 
L 319.982801 32.032019 
L 320.321012 32.032019 
L 320.997434 35.131584 
L 322.012067 36.164772 
L 322.350278 35.131584 
L 322.688488 35.131584 
L 323.026699 35.47598 
L 323.36491 34.098396 
L 324.041332 36.509169 
L 324.379543 37.886753 
L 324.717754 37.886753 
L 325.394176 37.197961 
L 326.070598 38.919941 
L 326.408809 38.231149 
L 327.085231 38.919941 
L 327.423442 40.297526 
L 327.761653 39.608733 
L 328.099863 39.264337 
L 328.776285 39.264337 
L 329.114496 39.953129 
L 329.452707 39.953129 
L 329.790918 39.264337 
L 330.129129 39.608733 
L 330.46734 39.264337 
L 330.805551 39.264337 
L 331.143762 39.608733 
L 331.481973 39.608733 
L 332.496606 38.575545 
L 332.834817 37.542357 
L 333.173028 38.919941 
L 333.849449 40.297526 
L 334.18766 41.330714 
L 334.525871 40.986318 
L 334.864082 41.330714 
L 335.202293 40.986318 
L 335.540504 41.330714 
L 335.878715 42.363902 
L 336.216926 42.363902 
L 337.56977 43.741487 
L 337.907981 42.363902 
L 338.246192 42.363902 
L 338.922614 40.641922 
L 339.260824 40.297526 
L 339.599035 40.297526 
L 339.937246 39.608733 
L 340.275457 38.231149 
L 340.613668 37.886753 
L 340.951879 37.886753 
L 341.29009 36.509169 
L 341.628301 36.853565 
L 341.966512 36.509169 
L 342.304723 36.509169 
L 342.642934 35.820376 
L 342.981145 36.164772 
L 343.319356 36.164772 
L 343.657567 37.886753 
L 343.995778 38.231149 
L 344.333989 37.197961 
L 345.686832 35.820376 
L 346.025043 35.131584 
L 346.363254 35.131584 
L 347.039676 34.442792 
L 347.377887 34.787188 
L 347.716098 33.754 
L 348.054309 33.754 
L 348.39252 34.787188 
L 349.068942 33.409604 
L 349.407153 34.098396 
L 349.745364 34.442792 
L 350.083574 33.754 
L 350.421785 35.131584 
L 351.098207 35.131584 
L 351.436418 34.787188 
L 351.774629 34.787188 
L 352.451051 34.098396 
L 352.789262 34.442792 
L 353.127473 35.820376 
L 353.465684 35.47598 
L 353.803895 35.47598 
L 354.142106 36.509169 
L 354.480317 36.853565 
L 354.818528 35.131584 
L 355.156739 35.47598 
L 355.494949 36.164772 
L 356.171371 35.47598 
L 356.509582 35.820376 
L 356.847793 36.509169 
L 357.186004 35.820376 
L 357.524215 35.820376 
L 358.200637 35.131584 
L 358.538848 35.131584 
L 358.877059 34.787188 
L 359.21527 35.131584 
L 359.553481 35.131584 
L 359.891692 33.754 
L 360.229903 34.442792 
L 360.568114 34.787188 
L 360.906325 35.47598 
L 361.244535 35.820376 
L 361.582746 34.098396 
L 361.920957 33.754 
L 362.597379 34.442792 
L 362.93559 34.442792 
L 363.273801 34.787188 
L 363.950223 34.787188 
L 364.288434 35.131584 
L 365.303067 34.098396 
L 365.979489 35.47598 
L 366.3177 34.787188 
L 366.994121 35.47598 
L 367.332332 35.131584 
L 368.346965 32.032019 
L 368.685176 32.032019 
L 369.023387 31.687623 
L 369.361598 32.376415 
L 369.699809 32.376415 
L 370.03802 31.687623 
L 370.376231 31.343227 
L 370.714442 30.654435 
L 371.052653 30.310039 
L 371.390864 30.654435 
L 371.729075 32.032019 
L 372.405496 32.032019 
L 373.081918 31.343227 
L 373.420129 32.376415 
L 374.096551 31.687623 
L 374.434762 30.654435 
L 374.772973 31.343227 
L 375.111184 29.965643 
L 375.449395 30.654435 
L 376.125817 31.343227 
L 376.464028 30.310039 
L 376.802239 28.243662 
L 377.14045 28.588058 
L 377.47866 28.243662 
L 377.816871 28.588058 
L 378.155082 28.243662 
L 378.493293 28.588058 
L 378.831504 28.243662 
L 379.507926 29.621247 
L 379.846137 29.621247 
L 380.184348 28.588058 
L 380.522559 28.243662 
L 380.86077 28.932454 
L 381.198981 27.899266 
L 381.537192 27.55487 
L 381.875403 26.521682 
L 382.213614 27.55487 
L 382.890035 26.866078 
L 383.566457 25.488493 
L 384.242879 25.488493 
L 384.919301 26.866078 
L 385.257512 27.210474 
L 385.595723 27.899266 
L 385.933934 27.55487 
L 386.610356 29.276851 
L 386.948567 28.588058 
L 387.286778 29.276851 
L 387.624989 29.276851 
L 388.301411 31.343227 
L 388.977832 32.032019 
L 389.316043 31.687623 
L 389.654254 31.687623 
L 389.992465 32.032019 
L 390.668887 32.032019 
L 391.007098 32.376415 
L 391.345309 33.409604 
L 391.68352 33.754 
L 392.021731 33.754 
L 392.359942 33.409604 
L 393.036364 32.032019 
L 393.036364 32.032019 
" clip-path="url(#p56d7b7e45e)" style="fill: none; stroke: #1f77b4; stroke-width: 1.5; stroke-linecap: square"/>
   </g>
   <g id="patch_7">
    <path d="M 38.27 303.64 
L 38.27 10.8 
" style="fill: none; stroke: #000000; stroke-width: 0.8; stroke-linejoin: miter; stroke-linecap: square"/>
   </g>
   <g id="patch_8">
    <path d="M 409.93 303.64 
L 409.93 10.8 
" style="fill: none; stroke: #000000; stroke-width: 0.8; stroke-linejoin: miter; stroke-linecap: square"/>
   </g>
   <g id="patch_9">
    <path d="M 38.27 303.64 
L 409.93 303.64 
" style="fill: none; stroke: #000000; stroke-width: 0.8; stroke-linejoin: miter; stroke-linecap: square"/>
   </g>
   <g id="patch_10">
    <path d="M 38.27 10.8 
L 409.93 10.8 
" style="fill: none; stroke: #000000; stroke-width: 0.8; stroke-linejoin: miter; stroke-linecap: square"/>
   </g>
   <g id="text_25">
    <!-- JC69 model with miu=0.01 -->
    <g transform="translate(143.671875 4.8) scale(0.12 -0.12)">
     <defs>
      <path id="DejaVuSans-4a" d="M 628 4666 
L 1259 4666 
L 1259 325 
Q 1259 -519 939 -900 
Q 619 -1281 -91 -1281 
L -331 -1281 
L -331 -750 
L -134 -750 
Q 284 -750 456 -515 
Q 628 -281 628 325 
L 628 4666 
z
" transform="scale(0.015625)"/>
      <path id="DejaVuSans-43" d="M 4122 4306 
L 4122 3641 
Q 3803 3938 3442 4084 
Q 3081 4231 2675 4231 
Q 1875 4231 1450 3742 
Q 1025 3253 1025 2328 
Q 1025 1406 1450 917 
Q 1875 428 2675 428 
Q 3081 428 3442 575 
Q 3803 722 4122 1019 
L 4122 359 
Q 3791 134 3420 21 
Q 3050 -91 2638 -91 
Q 1578 -91 968 557 
Q 359 1206 359 2328 
Q 359 3453 968 4101 
Q 1578 4750 2638 4750 
Q 3056 4750 3426 4639 
Q 3797 4528 4122 4306 
z
" transform="scale(0.015625)"/>
      <path id="DejaVuSans-39" d="M 703 97 
L 703 672 
Q 941 559 1184 500 
Q 1428 441 1663 441 
Q 2288 441 2617 861 
Q 2947 1281 2994 2138 
Q 2813 1869 2534 1725 
Q 2256 1581 1919 1581 
Q 1219 1581 811 2004 
Q 403 2428 403 3163 
Q 403 3881 828 4315 
Q 1253 4750 1959 4750 
Q 2769 4750 3195 4129 
Q 3622 3509 3622 2328 
Q 3622 1225 3098 567 
Q 2575 -91 1691 -91 
Q 1453 -91 1209 -44 
Q 966 3 703 97 
z
M 1959 2075 
Q 2384 2075 2632 2365 
Q 2881 2656 2881 3163 
Q 2881 3666 2632 3958 
Q 2384 4250 1959 4250 
Q 1534 4250 1286 3958 
Q 1038 3666 1038 3163 
Q 1038 2656 1286 2365 
Q 1534 2075 1959 2075 
z
" transform="scale(0.015625)"/>
      <path id="DejaVuSans-77" d="M 269 3500 
L 844 3500 
L 1563 769 
L 2278 3500 
L 2956 3500 
L 3675 769 
L 4391 3500 
L 4966 3500 
L 4050 0 
L 3372 0 
L 2619 2869 
L 1863 0 
L 1184 0 
L 269 3500 
z
" transform="scale(0.015625)"/>
      <path id="DejaVuSans-68" d="M 3513 2113 
L 3513 0 
L 2938 0 
L 2938 2094 
Q 2938 2591 2744 2837 
Q 2550 3084 2163 3084 
Q 1697 3084 1428 2787 
Q 1159 2491 1159 1978 
L 1159 0 
L 581 0 
L 581 4863 
L 1159 4863 
L 1159 2956 
Q 1366 3272 1645 3428 
Q 1925 3584 2291 3584 
Q 2894 3584 3203 3211 
Q 3513 2838 3513 2113 
z
" transform="scale(0.015625)"/>
      <path id="DejaVuSans-75" d="M 544 1381 
L 544 3500 
L 1119 3500 
L 1119 1403 
Q 1119 906 1312 657 
Q 1506 409 1894 409 
Q 2359 409 2629 706 
Q 2900 1003 2900 1516 
L 2900 3500 
L 3475 3500 
L 3475 0 
L 2900 0 
L 2900 538 
Q 2691 219 2414 64 
Q 2138 -91 1772 -91 
Q 1169 -91 856 284 
Q 544 659 544 1381 
z
M 1991 3584 
L 1991 3584 
z
" transform="scale(0.015625)"/>
      <path id="DejaVuSans-3d" d="M 678 2906 
L 4684 2906 
L 4684 2381 
L 678 2381 
L 678 2906 
z
M 678 1631 
L 4684 1631 
L 4684 1100 
L 678 1100 
L 678 1631 
z
" transform="scale(0.015625)"/>
      <path id="DejaVuSans-2e" d="M 684 794 
L 1344 794 
L 1344 0 
L 684 0 
L 684 794 
z
" transform="scale(0.015625)"/>
     </defs>
     <use xlink:href="#DejaVuSans-4a"/>
     <use xlink:href="#DejaVuSans-43" x="29.492188"/>
     <use xlink:href="#DejaVuSans-36" x="99.316406"/>
     <use xlink:href="#DejaVuSans-39" x="162.939453"/>
     <use xlink:href="#DejaVuSans-20" x="226.5625"/>
     <use xlink:href="#DejaVuSans-6d" x="258.349609"/>
     <use xlink:href="#DejaVuSans-6f" x="355.761719"/>
     <use xlink:href="#DejaVuSans-64" x="416.943359"/>
     <use xlink:href="#DejaVuSans-65" x="480.419922"/>
     <use xlink:href="#DejaVuSans-6c" x="541.943359"/>
     <use xlink:href="#DejaVuSans-20" x="569.726562"/>
     <use xlink:href="#DejaVuSans-77" x="601.513672"/>
     <use xlink:href="#DejaVuSans-69" x="683.300781"/>
     <use xlink:href="#DejaVuSans-74" x="711.083984"/>
     <use xlink:href="#DejaVuSans-68" x="750.292969"/>
     <use xlink:href="#DejaVuSans-20" x="813.671875"/>
     <use xlink:href="#DejaVuSans-6d" x="845.458984"/>
     <use xlink:href="#DejaVuSans-69" x="942.871094"/>
     <use xlink:href="#DejaVuSans-75" x="970.654297"/>
     <use xlink:href="#DejaVuSans-3d" x="1034.033203"/>
     <use xlink:href="#DejaVuSans-30" x="1117.822266"/>
     <use xlink:href="#DejaVuSans-2e" x="1181.445312"/>
     <use xlink:href="#DejaVuSans-30" x="1213.232422"/>
     <use xlink:href="#DejaVuSans-31" x="1276.855469"/>
    </g>
   </g>
  </g>
 </g>
 <defs>
  <clipPath id="p56d7b7e45e">
   <rect x="38.27" y="10.8" width="371.66" height="292.84"/>
  </clipPath>
 </defs>
</svg>
